<?xml version="1.0" encoding="utf-8"?>
<!-- Generator: Adobe Illustrator 21.1.0, SVG Export Plug-In . SVG Version: 6.00 Build 0)  -->
<svg version="1.1" id="Layer_1" xmlns="http://www.w3.org/2000/svg" xmlns:xlink="http://www.w3.org/1999/xlink" x="0px" y="0px"
	 viewBox="0 0 90 40" style="enable-background:new 0 0 90 40;" xml:space="preserve">
<style type="text/css">
	.st0{fill:#FEFEFD;}
	.st1{fill:#055C78;}
	.st2{fill:#F68E57;}
	.st3{fill:#CCCF69;}
	.st4{fill:#D8D995;}
	.st5{fill:#C0E6EE;}
</style>
<g>
	<path class="st0" d="M1.3,19.8c0-6.3,0-12.7,0-19c0-0.2,0-0.2,0.2-0.2c6.1,0,12.2,0,18.3,0c0,0.1-0.1,0.1-0.2,0.1
		c-0.4,0.3-0.4,0.9-0.1,1.2c0.3,0.3,0.8,0.3,1.1,0C21,1.6,21,1,20.6,0.7c-0.1,0-0.1-0.1-0.2-0.1c22.9,0,45.7,0,68.6,0
		c0.3,0,0.3,0.1,0.3,0.3c0,6.2,0,12.3,0,18.5c-0.1-0.1-0.1-0.1-0.1-0.2c-0.4-2.2-2.1-3.7-4.2-3.8c-2.4-0.1-4.6,2-4.6,4.6
		c0,3,0,5.9,0,8.9c0,0.1,0,0.2,0,0.2c0.2,0.1,0.4,0.1,0.5,0c0.1,0,0.1-0.2,0.1-0.3c0-1.9,0-3.8,0-5.7c0-0.1,0-0.2,0-0.3
		c0.1,0.1,0.1,0.2,0.2,0.2c0.8,1.2,1.8,1.9,3.2,2c2.2,0.2,4.1-1.3,4.7-3.6c0-0.1,0-0.2,0.1-0.3c0,6.1,0,12.2,0,18.4
		c0,0.2,0,0.3-0.3,0.3c-22.9,0-45.8,0-68.7,0c0.1,0,0.1-0.1,0.2-0.1c0.3-0.2,0.5-0.6,0.4-1C20.8,38.2,20.4,38,20,38
		c-0.4,0.1-0.7,0.4-0.7,0.8c0,0.4,0.2,0.6,0.5,0.8c-6.1,0-12.2,0-18.4,0c-0.2,0-0.2,0-0.2-0.2c0-6.3,0-12.7,0-19
		c0.1,0,0.1,0.1,0.1,0.2C1.6,20.8,2,21,2.3,20.9c0.3-0.1,0.6-0.4,0.6-0.8c0-0.4-0.2-0.7-0.6-0.8c-0.3-0.1-0.7,0-0.9,0.3
		C1.4,19.7,1.4,19.8,1.3,19.8z M19.6,20.7C19.6,20.7,19.6,20.7,19.6,20.7C19.6,20.7,19.6,20.7,19.6,20.7
		C19.6,20.7,19.6,20.7,19.6,20.7C19.6,20.8,19.5,20.8,19.6,20.7c-0.1,0.1-0.1,0.1-0.1,0.1c-1.3,1.2-2.7,2.3-4,3.5
		c-0.1,0.1-0.1,0.2,0,0.3c0.4,0.4,0.8,0.7,1.2,1c0.2,0.1,0.3,0.1,0.4-0.1c0.5-1,1.1-2,1.6-2.9C18.9,22,19.3,21.4,19.6,20.7
		C19.6,20.8,19.6,20.8,19.6,20.7z M30.9,12.5C30.9,12.5,30.9,12.5,30.9,12.5C30.9,12.6,30.9,12.6,30.9,12.5
		C30.9,12.5,30.9,12.5,30.9,12.5c-0.1-0.3-0.4-0.6-0.6-0.9c0-0.1-0.1-0.2-0.2-0.1c-0.1,0.1-0.2,0.2-0.3,0.3c0,0,0,0.1,0.1,0.1
		C30.2,12.1,30.6,12.3,30.9,12.5z M12.9,31.4c0.1,0.1,0.2,0.2,0.3,0.2c2.8,1.8,5.9,2.4,9.1,1.8c8.9-1.6,13.6-11.9,9.2-20
		c-0.1-0.1-0.2-0.2-0.3-0.3c-3.4-2.9-8.5-2.8-11.9,0.1c-0.2,0.2-0.2,0.2,0,0.4c2.5,2.2,3.8,5.1,3.5,8.5c-0.3,3.8-2.2,6.6-5.5,8.3
		C16,31.1,14.5,31.4,12.9,31.4z M58.8,17.7c-0.2-0.2-0.3-0.4-0.4-0.6c-1.1-1.6-3.2-2.3-5-1.5c-2.6,1.1-3.7,4.5-2.2,7.1
		c1.2,2.2,3.8,2.9,5.8,1.7c1.6-0.9,2.4-2.4,2.4-4.3c0-2.9,0-5.8,0-8.7c0-0.4-0.2-0.3-0.4-0.3c-0.2,0-0.3,0.1-0.3,0.3
		c0,1.9,0,3.9,0,5.8C58.8,17.4,58.8,17.5,58.8,17.7z M75.1,20.1c1.3,0,2.6,0,3.8,0c0.2,0,0.3-0.1,0.3-0.3c0-0.5-0.1-0.9-0.3-1.4
		c-0.8-2.2-2.9-3.5-4.9-3.1c-2.4,0.5-4,3-3.6,5.6c0.5,2.8,2.9,4.5,5.6,3.9c1.5-0.3,2.5-1.3,3-2.8c0-0.1,0.1-0.1,0-0.2
		c-0.2-0.1-0.6,0-0.7,0.2c-0.3,0.8-0.8,1.4-1.5,1.8c-2.6,1.2-5.5-0.4-5.7-3.5c0-0.3,0.1-0.3,0.3-0.3C72.6,20.1,73.9,20.1,75.1,20.1z
		 M69.2,18.4c-0.2-1-1.1-2.1-2.1-2.6c-2.4-1.2-5.2,0-6.1,2.6c-1.2,3.3,1.2,6.8,4.6,6.5c1.8-0.1,2.9-1.1,3.6-2.8c0-0.1,0.1-0.1,0-0.2
		c-0.1-0.1-0.6,0-0.7,0.2c-0.8,1.7-2.5,2.6-4.2,2.1c-2-0.5-3.3-2.7-2.8-5c0.4-1.9,1.9-3.2,3.6-3.2c1.5,0,2.7,0.7,3.4,2.2
		c0,0.1,0.1,0.2,0.2,0.2C68.8,18.4,69,18.4,69.2,18.4z M46.6,23.8c0-1.5,0-3,0-4.5c0-0.3,0-0.5,0-0.8c0.2-1.4,1-2.3,2.3-2.5
		c0.3-0.1,0.7-0.1,1-0.1c0.1,0,0.3,0,0.2-0.2c0-0.2,0.2-0.4-0.2-0.5c-0.3,0-0.6,0-0.9,0c-1.5,0.1-2.6,1.1-3,2.6
		C46,18.3,46,18.7,46,19.1c0,3.2,0,6.4,0,9.6c0,0.3,0.1,0.3,0.3,0.3c0.2,0,0.4,0,0.4-0.3C46.6,27.1,46.6,25.5,46.6,23.8z M11.7,20.2
		c-0.5,0-1.1,0-1.6,0c-0.3,0-0.3,0.1-0.3,0.3c0.1,1,0.2,1.9,0.5,2.9c0.1,0.2,0.1,0.2,0.3,0.2c1-0.4,2.1-0.8,3.1-1.2
		c0.2-0.1,0.2-0.1,0.2-0.3c-0.2-0.5-0.3-1-0.3-1.6c0-0.3-0.1-0.3-0.4-0.3C12.7,20.2,12.2,20.2,11.7,20.2z M13.9,22.6
		C13.9,22.6,13.9,22.6,13.9,22.6c-1.2,0.4-2.2,0.8-3.3,1.3c-0.1,0.1-0.1,0.1-0.1,0.3c0.4,1,0.9,1.9,1.5,2.7c0.1,0.1,0.2,0.1,0.3,0
		c0.9-0.8,1.7-1.5,2.6-2.3c0.1-0.1,0.2-0.2,0.1-0.3c-0.3-0.5-0.6-1-0.8-1.5C14,22.6,14,22.6,13.9,22.6z M15,15.8c0,0-0.1,0-0.1-0.1
		c-0.9-0.8-1.8-1.5-2.6-2.3c-0.2-0.1-0.2,0-0.3,0.1c-0.6,0.8-1.1,1.6-1.4,2.6c-0.1,0.2,0,0.3,0.2,0.4c1,0.4,2.1,0.8,3.1,1.2
		c0.2,0.1,0.2,0,0.3-0.1c0.2-0.5,0.5-1,0.8-1.5C14.9,15.9,15,15.9,15,15.8z M15.1,24.6c0,0-0.1,0-0.1,0.1c-0.9,0.8-1.8,1.5-2.7,2.3
		c-0.1,0.1-0.1,0.2,0,0.3c0.7,0.8,1.4,1.4,2.3,2c0.1,0.1,0.2,0.1,0.3,0c0.6-1,1.1-2.1,1.7-3.1c0.1-0.1,0.1-0.2-0.1-0.3
		c-0.5-0.3-0.9-0.7-1.3-1.1C15.3,24.7,15.2,24.6,15.1,24.6z M18.8,13.2c0-0.1,0-0.1,0-0.2c-0.2-1.1-0.4-2.2-0.5-3.3
		c0-0.3-0.2-0.3-0.4-0.3c-0.8,0.2-1.5,0.4-2.2,0.8c-0.7,0.3-0.7,0.3-0.3,1c0.5,0.9,1,1.7,1.4,2.6c0.1,0.1,0.1,0.2,0.3,0.2
		c0.5-0.3,1.1-0.5,1.6-0.6C18.8,13.4,18.9,13.3,18.8,13.2z M16.7,14.2C16.7,14.2,16.7,14.1,16.7,14.2c-0.6-1.1-1.2-2.2-1.8-3.2
		c-0.1-0.1-0.2-0.1-0.3,0c-0.9,0.6-1.6,1.2-2.3,2c-0.1,0.1-0.1,0.2,0,0.2c0.9,0.8,1.8,1.5,2.6,2.3c0.1,0.1,0.2,0.1,0.3,0
		c0.4-0.4,0.8-0.8,1.3-1.1C16.6,14.3,16.7,14.3,16.7,14.2z M11.6,20c0.6,0,1.1,0,1.7,0c0.2,0,0.2,0,0.2-0.2c0-0.6,0.1-1.1,0.3-1.6
		c0.1-0.2,0-0.3-0.2-0.3c-1-0.4-2.1-0.8-3.1-1.2c-0.2-0.1-0.2-0.1-0.3,0.1c-0.3,1-0.5,2-0.5,3c0,0.2,0.1,0.2,0.2,0.2
		C10.5,20,11.1,20,11.6,20z M18.9,26.9c0-0.1-0.1-0.1-0.2-0.2c-0.5-0.1-1.1-0.3-1.5-0.6c-0.1-0.1-0.2-0.1-0.3,0.1
		c-0.6,1-1.1,2-1.7,3.1c-0.1,0.2-0.1,0.2,0.1,0.3c0.3,0.2,0.7,0.3,1,0.5c0.5,0.3,1,0.3,1.5-0.1c0.2-0.1,0.4-0.2,0.5-0.3
		c0.1-0.1,0.2-0.1,0.2-0.2C18.6,28.6,18.7,27.8,18.9,26.9z M8.3,20.2c-0.3,0-0.6,0-1,0c-0.2,0-0.3,0.1-0.3,0.3c0,0.2,0,0.4,0,0.6
		c0.1,1.1,0.3,2.2,0.6,3.3c0.1,0.2,0.1,0.2,0.3,0.2c0.6-0.2,1.3-0.5,1.9-0.7c0.1,0,0.2-0.1,0.1-0.2c-0.4-1-0.5-2.1-0.6-3.2
		c0-0.2-0.1-0.2-0.2-0.2C9,20.2,8.6,20.2,8.3,20.2z M11.9,13.2c0-0.1-0.1-0.1-0.1-0.2c-0.5-0.5-1-0.9-1.6-1.4
		c-0.1-0.1-0.2-0.1-0.3,0c-0.8,1.1-1.5,2.2-2,3.5c-0.1,0.1,0,0.2,0.1,0.3c0.6,0.2,1.3,0.5,1.9,0.7c0.2,0.1,0.2,0,0.3-0.1
		c0.4-1,0.9-1.9,1.5-2.7C11.8,13.2,11.9,13.2,11.9,13.2z M18.1,9.1c-0.1-0.7-0.2-1.5-0.4-2.2c0-0.1-0.1-0.1-0.2-0.1
		c-0.2,0.1-0.4,0.1-0.7,0.2c-1.1,0.3-2.1,0.7-3,1.2c-0.1,0.1-0.2,0.1-0.1,0.3c0.4,0.6,0.7,1.2,1,1.9c0.1,0.1,0.1,0.2,0.3,0.1
		C16,9.9,17,9.5,18,9.3C18.1,9.3,18.2,9.2,18.1,9.1z M10.1,28.7c0,0,0.1-0.1,0.2-0.1c0.5-0.5,1-0.9,1.6-1.4c0.1-0.1,0.1-0.2,0-0.3
		c-0.6-0.8-1.1-1.7-1.5-2.7c-0.1-0.2-0.2-0.2-0.4-0.2c-0.6,0.2-1.2,0.5-1.8,0.7c-0.2,0.1-0.2,0.2-0.1,0.4c0.5,1.2,1.1,2.3,1.9,3.4
		C9.9,28.6,10,28.6,10.1,28.7z M22.1,9.1c0,0.2,0.1,0.2,0.3,0.2c1,0.2,1.9,0.6,2.7,1c0.2,0.1,0.3,0.1,0.4-0.1
		c0.3-0.6,0.6-1.1,0.9-1.7c0.2-0.3,0.1-0.4-0.1-0.5c-1-0.6-2.1-1-3.3-1.3c-0.5-0.1-0.5-0.1-0.5,0.3C22.3,7.8,22.2,8.5,22.1,9.1z
		 M20.1,6.5c-0.6,0.1-1.3,0.1-1.9,0.2C18,6.7,18,6.8,18,7c0.1,0.7,0.2,1.4,0.3,2c0,0.2,0.1,0.2,0.2,0.2c0.2,0,0.4,0,0.7-0.1
		c0.8-0.1,1.5,0,2.3,0.1c0.2,0,0.3-0.1,0.4-0.3C22,8.2,22.1,7.6,22.2,7c0-0.2,0-0.2-0.2-0.3C21.4,6.6,20.8,6.6,20.1,6.5z M13.4,8.5
		c0,0-0.1,0-0.1,0.1c-1.1,0.7-2.1,1.6-3,2.6c-0.2,0.2-0.1,0.3,0.1,0.4c0.5,0.4,1,0.9,1.5,1.3c0.1,0.1,0.2,0.1,0.3,0
		c0.7-0.8,1.4-1.4,2.3-2c0.2-0.1,0.2-0.2,0.1-0.3c-0.3-0.6-0.7-1.2-1-1.8C13.6,8.5,13.5,8.5,13.4,8.5z M8.3,20c0.3,0,0.6,0,1,0
		c0.2,0,0.3,0,0.3-0.3c0.1-1,0.2-2,0.5-3c0.1-0.2,0-0.3-0.2-0.4c-0.5-0.2-1-0.4-1.4-0.5c-0.6-0.2-0.6-0.2-0.8,0.4
		c-0.3,1.1-0.5,2.3-0.6,3.5c0,0.2,0,0.3,0.3,0.3C7.6,19.9,7.9,20,8.3,20z M13.1,31.1c0.2,0,0.4,0,0.6,0c0.1,0,0.2,0,0.3-0.2
		c0.2-0.4,0.4-0.8,0.7-1.2c0.1-0.1,0.1-0.2-0.1-0.3c-0.9-0.6-1.6-1.3-2.3-2c-0.1-0.1-0.2-0.1-0.3,0c-0.5,0.5-1,0.9-1.6,1.4
		c-0.1,0.1-0.1,0.2,0,0.3c0.5,0.6,1.1,1.2,1.7,1.7C12.4,31,12.7,31.2,13.1,31.1z M22.8,35.3c0.1,0.4,0.2,0.9,0.2,1.3
		c0,0.2,0.1,0.1,0.2,0.1c1.7-0.3,3.3-0.9,4.8-1.8c0.1-0.1,0.1-0.2,0.1-0.3c-0.2-0.4-0.4-0.7-0.6-1.1c-0.1-0.1-0.1-0.2-0.3-0.1
		c-1.3,0.7-2.7,1.3-4.2,1.6C22.9,35,22.8,35.1,22.8,35.3z M32.5,31.1c0-0.1-0.1-0.1-0.1-0.1c-0.3-0.3-0.6-0.6-1-0.9
		c-0.1-0.1-0.2-0.1-0.3,0c-0.1,0.1-0.2,0.3-0.3,0.4c-0.9,1-1.9,1.8-3,2.5c-0.2,0.1-0.2,0.2-0.1,0.4c0.2,0.3,0.4,0.7,0.6,1
		c0.1,0.2,0.2,0.2,0.3,0.1c1.4-0.9,2.7-2,3.8-3.4C32.4,31.2,32.5,31.1,32.5,31.1z M17.5,35.2c0.1-0.1-0.1-0.1-0.2-0.1
		c-0.6-0.1-1.2-0.3-1.7-0.5c-0.8-0.3-1.6-0.6-2.4-1.1c-0.2-0.1-0.3-0.1-0.5,0.1c-0.2,0.3-0.4,0.7-0.6,1c-0.1,0.1-0.1,0.2,0.1,0.3
		c0.4,0.3,0.9,0.5,1.3,0.7c1.1,0.5,2.2,0.9,3.4,1.1c0.2,0,0.2,0,0.2-0.2C17.3,36.1,17.4,35.6,17.5,35.2z M33.9,25.4
		c-0.1,0-0.1,0.1-0.2,0.2c-0.1,0.4-0.3,0.7-0.5,1.1c-0.5,1-1.1,2-1.8,2.9c-0.1,0.1-0.1,0.2,0,0.3c0.3,0.3,0.7,0.6,1,0.9
		c0.1,0.1,0.2,0.1,0.3,0c1-1.3,1.8-2.7,2.4-4.3c0.2-0.4,0.2-0.4-0.3-0.6C34.6,25.7,34.3,25.6,33.9,25.4z M20.1,37
		c0.8,0,1.7,0,2.5-0.2c0.2,0,0.3-0.1,0.2-0.3c-0.1-0.4-0.2-0.8-0.2-1.2c0-0.2-0.1-0.2-0.3-0.2c-0.5,0.1-1,0.1-1.5,0.2
		c-1,0-2,0-2.9-0.2c-0.1,0-0.2,0-0.2,0.2c-0.1,0.4-0.1,0.8-0.2,1.2c0,0.2,0,0.2,0.2,0.3C18.5,36.9,19.3,37,20.1,37z M19.1,13.2
		c0.7-0.6,1.5-1.1,2.3-1.5c0.1,0,0.1-0.1,0.1-0.2c0.1-0.6,0.2-1.2,0.3-1.8c0-0.2,0-0.2-0.2-0.2c-1-0.1-2-0.1-3,0
		c-0.2,0-0.2,0.1-0.2,0.3c0.1,0.5,0.2,1,0.3,1.6C18.8,11.9,19,12.5,19.1,13.2z M8.7,30.2c-0.1,0-0.1,0-0.1,0.1
		c-0.2,0.2-0.5,0.4-0.7,0.6c-0.1,0.1-0.1,0.2,0,0.3c0.5,0.5,0.9,1,1.4,1.5c0.7,0.7,1.5,1.3,2.4,1.8c0.2,0.1,0.2,0,0.3-0.1
		c0.2-0.4,0.4-0.8,0.6-1.1c0.1-0.2,0-0.2-0.1-0.3c-1-0.6-2-1.4-2.8-2.3C9.4,30.5,9,30.4,8.7,30.2z M30,11.3c0,0,0-0.1-0.1-0.1
		c-0.9-1-1.9-1.9-3-2.6c-0.1-0.1-0.2-0.1-0.3,0.1c-0.3,0.6-0.7,1.2-1,1.8c-0.1,0.2-0.1,0.3,0.2,0.4c0.3,0,0.6,0.1,0.9,0.1
		c0.9,0.1,1.8,0.4,2.6,0.8C29.5,11.7,30,11.5,30,11.3z M19.4,20C19.3,19.9,19.3,19.9,19.4,20c-1.7-0.7-3.4-1.4-5-2
		c-0.2-0.1-0.2,0-0.3,0.2c-0.1,0.5-0.2,1-0.3,1.5c0,0.3,0.1,0.3,0.3,0.3c1.5,0,3,0,4.5,0C18.8,20,19.1,20,19.4,20z M19.4,20.3
		C19.3,20.2,19.3,20.2,19.4,20.3c-1.9-0.1-3.6-0.1-5.4-0.1c-0.2,0-0.2,0.1-0.2,0.2c0,0.5,0.1,1,0.2,1.5c0.1,0.2,0.1,0.3,0.4,0.2
		c1.3-0.5,2.5-1,3.8-1.4C18.6,20.6,19,20.4,19.4,20.3z M19.9,19.4C19.9,19.3,19.9,19.3,19.9,19.4c-0.3-1.9-0.6-3.7-0.9-5.6
		c0-0.1-0.1-0.2-0.2-0.1c-0.5,0.1-1,0.3-1.4,0.5c-0.2,0.1-0.3,0.2-0.1,0.4c0.8,1.4,1.6,2.9,2.4,4.3C19.7,19,19.8,19.2,19.9,19.4z
		 M20.2,20.9C20.1,20.9,20.1,20.9,20.2,20.9c-0.1,0.2-0.2,0.4-0.2,0.7c-0.3,1.6-0.5,3.2-0.8,4.8c0,0.2,0,0.2,0.2,0.3
		c0.5,0.1,1,0.1,1.5,0c0.2,0,0.2-0.1,0.2-0.3c-0.2-1.1-0.4-2.2-0.6-3.3C20.4,22.3,20.3,21.6,20.2,20.9z M19.5,19.7
		c-0.1-0.1-0.1-0.1-0.1-0.1c-1.4-1.2-2.7-2.4-4.1-3.5c-0.1-0.1-0.2-0.1-0.3,0c-0.3,0.4-0.6,0.9-0.8,1.4c-0.1,0.2-0.1,0.3,0.1,0.4
		c0.5,0.2,1.1,0.4,1.6,0.6C17.2,18.9,18.3,19.3,19.5,19.7z M19.5,20.5C19.4,20.5,19.4,20.5,19.5,20.5c-1.8,0.6-3.4,1.2-5.1,1.9
		c-0.2,0.1-0.1,0.1-0.1,0.3c0.2,0.5,0.5,0.9,0.7,1.4c0.1,0.2,0.2,0.2,0.4,0c0.7-0.6,1.4-1.2,2.1-1.9C18.2,21.6,18.8,21.1,19.5,20.5z
		 M19.9,20.8C19.8,20.9,19.8,20.9,19.9,20.8c-1,1.7-1.9,3.3-2.8,4.9c-0.1,0.1,0,0.2,0.1,0.3c0.5,0.3,1,0.4,1.5,0.6
		c0.2,0,0.3,0,0.3-0.2c0.1-0.6,0.2-1.2,0.3-1.8C19.5,23.3,19.7,22.1,19.9,20.8z M19.5,19.3c0-0.1-0.1-0.1-0.1-0.2
		c-0.8-1.5-1.6-3-2.5-4.4c-0.1-0.2-0.2-0.2-0.3-0.1c-0.4,0.3-0.8,0.6-1.2,1c-0.2,0.2-0.1,0.2,0,0.4c0.8,0.7,1.6,1.4,2.4,2.1
		c0.5,0.4,0.9,0.8,1.4,1.2C19.4,19.3,19.4,19.4,19.5,19.3C19.5,19.3,19.5,19.3,19.5,19.3z M20.1,5.1c-0.6,0-1.2,0.1-1.8,0.1
		c-0.6,0.1-0.6,0.1-0.5,0.7c0,0,0,0.1,0,0.1c0.1,0.4,0.1,0.4,0.5,0.3c0.6-0.1,1.2-0.1,1.8-0.1c0.6,0,1.2,0,1.8,0.1
		c0.2,0,0.4,0,0.4-0.3c0-0.2,0-0.4,0.1-0.6c0-0.2,0-0.2-0.2-0.3C21.6,5.2,20.9,5.2,20.1,5.1z M34.5,20.6c0.1-0.3-0.1-0.4-0.3-0.4
		c-0.1,0-0.1,0-0.2,0c-0.6,0-0.6,0-0.7,0.6c0,1.1-0.2,2.1-0.5,3.1c-0.1,0.3-0.3,0.5-0.2,0.8c0.1,0.2,0.5,0.2,0.7,0.3
		c0.2,0.1,0.3,0,0.3-0.2C34.3,23.4,34.5,22,34.5,20.6z M7.6,15.2c0.1,0,0.1-0.1,0.1-0.2c0.5-1.2,1.1-2.3,1.9-3.4
		c0.3-0.3,0.3-0.3,0-0.6c-0.5-0.5-0.5-0.5-1,0.1c-0.8,1.1-1.4,2.2-1.9,3.5c0,0.1-0.1,0.2,0,0.2C7,15,7.3,15.1,7.6,15.2z M17.7,6.3
		c0-0.2-0.1-0.4-0.1-0.7c0-0.3-0.1-0.3-0.3-0.2c-1.3,0.3-2.5,0.7-3.6,1.3C13,7.1,13,7.1,13.3,7.6c0,0,0.1,0.1,0.1,0.1
		c0.1,0.3,0.2,0.3,0.5,0.2c1.1-0.6,2.3-1.1,3.6-1.3C17.6,6.5,17.7,6.5,17.7,6.3z M6.3,20.2c-0.1,0-0.2,0-0.3,0
		c-0.2,0-0.3,0.1-0.3,0.3c0.1,0.6,0.1,1.2,0.2,1.7C6,23.2,6.2,24,6.5,24.9C6.5,25,6.6,25.1,6.8,25c0.2-0.1,0.4-0.2,0.6-0.2
		c0.2-0.1,0.2-0.2,0.2-0.4c-0.4-1.2-0.6-2.4-0.6-3.7C6.8,20.2,6.8,20.2,6.3,20.2z M31.2,29.6c0.1,0,0.1-0.1,0.2-0.1
		c0.9-1.2,1.6-2.5,2.1-3.8c0.1-0.2,0.1-0.3-0.2-0.4c-0.2,0-0.4-0.1-0.5-0.2c-0.2-0.1-0.3,0-0.3,0.2c-0.4,1.1-1,2.1-1.7,3.1
		c-0.6,0.8-0.5,0.5,0.2,1.1C31.1,29.5,31.2,29.5,31.2,29.6z M22.6,33.9c0,0.2,0.1,0.5,0.1,0.7c0,0.2,0.1,0.2,0.2,0.2
		c1.3-0.3,2.6-0.8,3.8-1.4c0.5-0.2,0.4-0.3,0.2-0.7c0-0.1-0.1-0.1-0.1-0.2c-0.1-0.3-0.3-0.3-0.5-0.2c-1.1,0.6-2.3,1.1-3.5,1.3
		C22.7,33.6,22.5,33.6,22.6,33.9z M31,29.8c0-0.1-0.1-0.1-0.1-0.2c-0.1-0.1-0.3-0.2-0.4-0.4c-0.2-0.2-0.3-0.2-0.4,0
		c-0.9,1-1.9,1.9-3,2.6c-0.1,0.1-0.2,0.2-0.1,0.3c0.1,0.2,0.2,0.4,0.3,0.6c0.1,0.2,0.2,0.3,0.4,0.1c1.2-0.8,2.2-1.7,3.2-2.8
		C31,30,31,29.9,31,29.8z M10,11.1c0.1,0,0.2-0.1,0.2-0.2c0.8-0.9,1.6-1.6,2.6-2.3c0.6-0.4,0.6-0.4,0.2-1c-0.2-0.4-0.2-0.4-0.6-0.1
		c-1.1,0.7-2.1,1.6-3,2.6c-0.3,0.4-0.4,0.3,0,0.6c0.1,0.1,0.3,0.2,0.4,0.3C9.9,11,10,11,10,11.1z M31,10.4c0-0.1-0.1-0.1-0.1-0.2
		c-0.9-1.1-2-2-3.2-2.8c-0.2-0.1-0.3-0.2-0.4,0.1c-0.1,0.1-0.1,0.3-0.2,0.4c-0.2,0.2-0.1,0.3,0.1,0.5c0.9,0.6,1.8,1.3,2.6,2.1
		c0.2,0.2,0.3,0.5,0.5,0.5c0.2,0,0.4-0.3,0.6-0.4C30.9,10.6,30.9,10.5,31,10.4C31,10.5,31,10.4,31,10.4z M9.1,29.5
		C9.1,29.5,9.1,29.5,9.1,29.5c0.3-0.2,0.5-0.4,0.7-0.6c0.1-0.1,0.1-0.2,0-0.3c-0.8-1.1-1.5-2.2-1.9-3.5C7.7,25,7.6,24.9,7.4,25
		c-0.2,0.1-0.4,0.2-0.6,0.2c-0.2,0.1-0.2,0.1-0.1,0.3c0.1,0.3,0.2,0.6,0.4,0.9c0.5,1.1,1.1,2.1,1.8,3C8.9,29.4,8.9,29.5,9.1,29.5z
		 M20.1,35c0.7,0.1,1.4,0,2.1-0.1c0.2,0,0.3-0.1,0.2-0.3c-0.1-0.2-0.1-0.4-0.1-0.6c0-0.3-0.1-0.3-0.3-0.3c-0.4,0-0.8,0.1-1.1,0.1
		c-0.9,0-1.9,0-2.8-0.1c-0.1,0-0.2,0-0.2,0.1c0,0.3-0.1,0.5-0.1,0.8c0,0.2,0.1,0.3,0.2,0.3C18.7,35,19.4,35.1,20.1,35z M17.7,33.8
		c0-0.1-0.2-0.1-0.3-0.2c-1.2-0.2-2.3-0.7-3.4-1.3c-0.4-0.2-0.4-0.2-0.6,0.2c-0.1,0.1-0.1,0.3-0.2,0.4c-0.1,0.1-0.1,0.2,0.1,0.2
		c0.4,0.2,0.8,0.4,1.2,0.6c0.9,0.4,1.9,0.7,2.9,1c0.1,0,0.2,0.1,0.2-0.1C17.6,34.4,17.6,34.1,17.7,33.8z M22.6,6.3
		c0,0.2,0,0.2,0.2,0.2c1.3,0.3,2.6,0.7,3.7,1.4C26.6,8,26.7,8,26.8,7.9c0.1-0.2,0.2-0.4,0.3-0.6C27.3,7.1,27.2,7,27,6.9
		c-0.4-0.2-0.9-0.4-1.3-0.6c-0.9-0.4-1.8-0.7-2.7-0.9c-0.1,0-0.2-0.1-0.3,0.1C22.7,5.8,22.6,6.1,22.6,6.3z M6.3,19.9
		c0.1,0,0.1,0,0.2,0c0.2,0,0.3,0,0.4-0.3c0-0.3,0-0.6,0.1-0.9c0.1-1,0.3-2,0.6-3c0-0.1,0-0.2-0.1-0.2c-0.2-0.1-0.4-0.1-0.6-0.2
		c-0.2-0.1-0.3-0.1-0.3,0.2c-0.4,1.3-0.7,2.7-0.7,4C5.7,19.9,5.7,19.9,6.3,19.9z M33.6,14.8C33.6,14.8,33.6,14.7,33.6,14.8
		c-0.6-1.5-1.3-2.8-2.2-4.1c-0.1-0.1-0.2-0.1-0.3,0c-0.1,0.1-0.1,0.1-0.2,0.2c-0.5,0.4-0.4,0.4-0.1,0.9c0.6,1.1,1.7,2,2.4,3
		c0.1,0.1,0.2,0.1,0.3,0.1C33.5,14.9,33.6,14.9,33.6,14.8z M34,19.9c0.5,0,0.5,0,0.5-0.5c-0.1-1.4-0.5-2.7-1.2-3.9
		c-0.1-0.2-0.3-0.1-0.4-0.1c-0.2,0.1-0.2,0.2-0.1,0.3c0.2,0.5,0.3,1.1,0.4,1.6c0.1,0.7,0.2,1.4,0.3,2.1C33.5,20,33.5,19.9,34,19.9z
		 M21.3,26.4c0.1-0.1,0.1-0.1,0.1-0.2c0.3-0.6,0.6-1.2,0.8-1.8c0.1-0.2,0-0.3-0.1-0.5c-0.6-1-1.1-2-1.7-3c0-0.1,0-0.2-0.2-0.2
		C20.7,22.7,21,24.5,21.3,26.4z M19.2,13.8C19.2,13.8,19.2,13.8,19.2,13.8c0.2,1.9,0.5,3.7,0.9,5.6c0.1-0.1,0.1-0.1,0.1-0.1
		c0.2-1.1,0.4-2.2,0.6-3.3c0.1-0.4,0-0.6-0.2-0.9C20.1,14.6,19.7,14.1,19.2,13.8z M25.2,10.8c-0.5-0.4-2.6-1.3-3-1.2
		c-0.1,0-0.1,0-0.1,0.1c-0.1,0.6-0.2,1.2-0.3,1.9C22.8,11,24,10.8,25.2,10.8z M34.7,21.9c-0.2,1-0.4,2-0.7,3c-0.1,0.2,0,0.3,0.2,0.3
		c0.4,0.1,0.8,0.3,1.2,0.4c0.1,0,0.2,0.1,0.2,0c0.1-0.3,0.3-0.6,0.2-0.9C35.3,23.9,34.9,22.9,34.7,21.9z M21.1,26.9
		c-0.6,0.1-1.2,0.1-1.8,0c-0.1,0-0.2,0-0.2,0.1c-0.1,0.8-0.3,1.5-0.4,2.4C19.6,28.7,20.4,27.8,21.1,26.9z M10.2,30.9
		c0.1,0.1,0.1,0.1,0.2,0.2c0.6,0.6,1.3,1.1,2.1,1.6c0.3,0.2,0.3,0.2,0.6-0.1c0.1-0.2,0.2-0.3,0.3-0.5c0.1-0.1,0.1-0.2,0-0.2
		c-0.4-0.2-0.8-0.6-1.3-0.6C11.4,31.2,10.8,31.1,10.2,30.9z M5.4,27.2c0,0,0,0.1,0,0.1c0.5,1.1,1.2,2.2,1.9,3.2
		c0.3,0.3,0.3,0.3,0.6,0c0.1-0.1,0.2-0.1,0.3-0.2c0.3-0.3,0.3-0.3,0-0.5c-0.7-0.5-1.4-1-2-1.7C5.9,27.8,5.7,27.5,5.4,27.2z M11.9,31
		c0-0.1,0-0.1-0.1-0.1c-0.5-0.4-1-0.9-1.5-1.4c-0.4-0.4-0.4-0.4-0.8-0.1c-0.1,0.1-0.2,0.2-0.3,0.2c-0.2,0.1-0.1,0.2,0,0.4
		c0.3,0.4,0.7,0.6,1.2,0.7C11,30.8,11.4,31,11.9,31z M36.6,29.5c0-0.5-0.3-0.8-0.8-0.8c-0.4,0-0.8,0.4-0.8,0.8
		c0,0.5,0.4,0.8,0.8,0.8C36.2,30.3,36.6,29.9,36.6,29.5z M37.9,26.5c0-0.4-0.4-0.8-0.8-0.8c-0.4,0-0.8,0.4-0.8,0.8
		c0,0.5,0.3,0.8,0.8,0.8C37.5,27.3,37.9,27,37.9,26.5z M32.5,34.5c0-0.4-0.3-0.8-0.8-0.8c-0.4,0-0.8,0.3-0.8,0.8
		c0,0.4,0.3,0.8,0.8,0.8C32.1,35.3,32.5,34.9,32.5,34.5z M35.8,11.5c0.4,0,0.8-0.4,0.8-0.8c0-0.5-0.3-0.8-0.8-0.8
		c-0.4,0-0.8,0.4-0.8,0.8C35,11.2,35.4,11.5,35.8,11.5z M39,20.1c0-0.5-0.3-0.8-0.8-0.8c-0.4,0-0.8,0.4-0.8,0.8
		c0,0.4,0.4,0.8,0.8,0.8C38.6,20.9,39,20.6,39,20.1z M5.3,10.8c0-0.5-0.3-0.8-0.8-0.8c-0.4,0-0.8,0.3-0.8,0.8c0,0.4,0.3,0.8,0.7,0.8
		C4.9,11.6,5.2,11.2,5.3,10.8z M5.3,29.5c0-0.4-0.3-0.8-0.8-0.8c-0.4,0-0.8,0.4-0.8,0.8c0,0.4,0.3,0.8,0.8,0.8
		C4.9,30.3,5.3,29.9,5.3,29.5z M31.7,4.9c-0.4,0-0.8,0.4-0.8,0.8c0,0.4,0.4,0.8,0.8,0.8c0.4,0,0.8-0.4,0.8-0.8
		C32.5,5.3,32.2,4.9,31.7,4.9z M29.2,35.5c-0.4,0-0.8,0.4-0.8,0.8c0,0.4,0.4,0.8,0.8,0.8c0.4,0,0.8-0.4,0.8-0.8
		C29.9,35.9,29.6,35.5,29.2,35.5z M37.1,14.5c0.4,0,0.8-0.4,0.8-0.8c0-0.5-0.4-0.8-0.8-0.8c-0.4,0-0.8,0.4-0.8,0.8
		C36.3,14.1,36.7,14.5,37.1,14.5z M29.1,4.7c0.4,0,0.8-0.3,0.8-0.8c0-0.5-0.3-0.8-0.8-0.8c-0.4,0-0.8,0.4-0.8,0.8
		C28.4,4.3,28.7,4.7,29.1,4.7z M37.9,17.7c0.5,0,0.8-0.3,0.8-0.8c0-0.4-0.3-0.8-0.8-0.8c-0.4,0-0.8,0.4-0.8,0.8
		C37.1,17.3,37.5,17.6,37.9,17.7z M37.9,24.2c0.5,0,0.8-0.3,0.8-0.8c0-0.4-0.3-0.8-0.8-0.8c-0.4,0-0.8,0.3-0.8,0.8
		C37.1,23.8,37.4,24.1,37.9,24.2z M27.1,2.5c0-0.4-0.4-0.8-0.8-0.8c-0.4,0-0.8,0.4-0.8,0.8c0,0.5,0.3,0.8,0.8,0.8
		C26.8,3.3,27.1,2.9,27.1,2.5z M34.7,8c0-0.5-0.4-0.8-0.8-0.8c-0.4,0-0.8,0.4-0.8,0.8c0,0.5,0.4,0.8,0.8,0.8
		C34.4,8.9,34.7,8.5,34.7,8z M34,33c0.4,0,0.8-0.3,0.8-0.8c0-0.5-0.3-0.8-0.8-0.8c-0.4,0-0.8,0.4-0.8,0.8C33.2,32.6,33.5,33,34,33z
		 M14.7,2.5c0-0.5-0.3-0.8-0.8-0.8c-0.4,0-0.8,0.4-0.8,0.8c0,0.4,0.3,0.8,0.8,0.8C14.4,3.3,14.7,3,14.7,2.5z M3.1,27.3
		c0.4,0,0.8-0.3,0.8-0.8c0-0.5-0.3-0.8-0.8-0.8c-0.4,0-0.8,0.4-0.8,0.8C2.4,26.9,2.7,27.3,3.1,27.3z M23.3,2.4
		c0.4,0,0.8-0.4,0.8-0.8c0-0.4-0.3-0.8-0.8-0.8c-0.4,0-0.8,0.4-0.8,0.8C22.5,2.1,22.8,2.4,23.3,2.4z M11.1,4.7
		c0.4,0,0.8-0.4,0.8-0.8c0-0.4-0.4-0.8-0.8-0.8c-0.4,0-0.8,0.4-0.8,0.8C10.3,4.3,10.7,4.7,11.1,4.7z M17,2.4c0.4,0,0.8-0.4,0.8-0.8
		c0-0.4-0.4-0.8-0.8-0.8c-0.4,0-0.8,0.4-0.8,0.8C16.2,2.1,16.6,2.4,17,2.4z M5.5,32.2c0,0.4,0.4,0.8,0.8,0.8c0.4,0,0.8-0.4,0.8-0.8
		c0-0.4-0.4-0.8-0.8-0.8C5.8,31.3,5.5,31.7,5.5,32.2z M11.1,35.5c-0.4,0-0.8,0.3-0.8,0.8c0,0.5,0.4,0.8,0.8,0.8
		c0.4,0,0.8-0.4,0.8-0.8C11.9,35.9,11.5,35.5,11.1,35.5z M27.1,37.7c0-0.4-0.3-0.8-0.8-0.8c-0.4,0-0.8,0.4-0.8,0.8
		c0,0.5,0.3,0.8,0.8,0.8C26.7,38.5,27.1,38.2,27.1,37.7z M6.3,7.2C5.9,7.2,5.5,7.6,5.5,8c0,0.5,0.3,0.8,0.8,0.8
		c0.4,0,0.8-0.4,0.8-0.8C7.1,7.6,6.7,7.2,6.3,7.2z M17.8,38.6c0-0.4-0.4-0.8-0.8-0.8c-0.4,0-0.8,0.4-0.8,0.8c0,0.5,0.3,0.8,0.8,0.8
		C17.4,39.4,17.8,39,17.8,38.6z M23.2,39.4c0.4,0,0.8-0.3,0.8-0.8c0-0.5-0.3-0.8-0.8-0.8c-0.4,0-0.8,0.4-0.8,0.8
		C22.5,39,22.8,39.3,23.2,39.4z M8.5,4.9c-0.4,0-0.8,0.3-0.8,0.8c0,0.5,0.3,0.8,0.8,0.8c0.4,0,0.8-0.4,0.8-0.8
		C9.3,5.3,9,4.9,8.5,4.9z M14.7,37.7c0-0.4-0.4-0.8-0.8-0.8c-0.4,0-0.8,0.4-0.8,0.8c0,0.4,0.3,0.8,0.8,0.8
		C14.4,38.5,14.7,38.2,14.7,37.7z M8.5,33.6c-0.4,0-0.8,0.4-0.8,0.8c0,0.5,0.3,0.8,0.8,0.8c0.4,0,0.8-0.4,0.8-0.8
		C9.3,34,8.9,33.6,8.5,33.6z M3.2,14.5c0.4,0,0.8-0.4,0.8-0.8c0-0.4-0.4-0.8-0.8-0.8c-0.4,0-0.8,0.4-0.8,0.8
		C2.4,14.1,2.7,14.5,3.2,14.5z M2.3,24.1c0.4,0,0.8-0.3,0.8-0.8c0-0.4-0.3-0.8-0.8-0.8c-0.4,0-0.8,0.4-0.8,0.8
		C1.6,23.8,1.9,24.1,2.3,24.1z M2.3,17.6c0.4,0,0.8-0.3,0.8-0.8c0-0.4-0.3-0.8-0.8-0.8c-0.4,0-0.8,0.3-0.8,0.8
		C1.6,17.3,1.9,17.6,2.3,17.6z M22.4,23.9c0.2-0.5,0.2-0.9,0.3-1.4c0-0.1-0.1-0.2-0.2-0.3c-0.6-0.5-1.2-1-1.7-1.5c0,0-0.1-0.1-0.2,0
		C21.2,21.8,21.8,22.8,22.4,23.9z M20.4,19.4C20.4,19.3,20.4,19.3,20.4,19.4c0.5-0.8,0.9-1.5,1.3-2.2c0-0.1,0.1-0.1,0-0.2
		c-0.2-0.4-0.4-0.8-0.7-1.2C20.8,17,20.6,18.2,20.4,19.4z M16.6,30.5C16,30.2,15.5,30,15,29.7c-0.1-0.1-0.2,0-0.2,0.1
		c-0.2,0.3-0.4,0.7-0.6,1c-0.1,0.2,0,0.2,0.1,0.2C15.1,31,15.9,30.8,16.6,30.5z M20.8,20.5c0.6,0.6,1.2,1.1,1.8,1.6
		c0.1,0.1,0.1,0,0.1-0.1c0.1-0.6,0-0.8-0.5-1c-0.2-0.1-0.4-0.2-0.7-0.2C21.3,20.7,21.1,20.5,20.8,20.5z M20.7,19.4
		c0.1,0,0.1,0,0.2,0c0.4-0.4,0.9-0.7,1.3-1.1c0.1,0,0.1-0.1,0.1-0.2c-0.1-0.3-0.2-0.5-0.3-0.8C21.4,18,21.1,18.6,20.7,19.4z
		 M20.9,20.2C20.9,20.2,20.9,20.2,20.9,20.2c0.5,0.3,1.1,0.5,1.7,0.7c0.1,0,0.1,0,0.1-0.1c0-0.1,0-0.2,0-0.3c0-0.1,0-0.2-0.2-0.2
		C22,20.2,21.4,20.2,20.9,20.2z M20.8,19.6C20.8,19.7,20.8,19.7,20.8,19.6c0.4-0.1,0.8-0.2,1.2-0.4c0.5-0.2,0.5-0.2,0.3-0.7
		c-0.1-0.1-0.1-0.1-0.2-0.1C21.7,18.9,21.2,19.3,20.8,19.6z M20.9,19.9C20.9,19.9,20.9,20,20.9,19.9c0.5,0.1,0.9,0.1,1.4,0.1
		c0.3,0,0.3-0.1,0.3-0.3c-0.1-0.4-0.1-0.4-0.4-0.2c-0.1,0-0.2,0.1-0.3,0.1C21.6,19.7,21.2,19.8,20.9,19.9z M32.1,13.9
		c0.1,0.4,0.3,0.8,0.5,1.2c0.1,0.2,0.2,0,0.3,0c0.1,0,0.1-0.1,0-0.2C32.7,14.6,32.4,14.2,32.1,13.9z M34.1,16.6
		c-0.1-0.4-0.2-0.9-0.3-1.3c0-0.1-0.1-0.2-0.2-0.1c-0.2,0.1-0.1,0.2-0.1,0.3C33.7,15.8,33.9,16.2,34.1,16.6z"/>
	<path class="st1" d="M89.3,21c-0.1,0.1-0.1,0.2-0.1,0.3c-0.5,2.3-2.5,3.8-4.7,3.6c-1.4-0.1-2.4-0.8-3.2-2c-0.1-0.1-0.1-0.2-0.2-0.2
		c-0.1,0.1,0,0.2,0,0.3c0,1.9,0,3.8,0,5.7c0,0.1,0.1,0.3-0.1,0.3c-0.2,0-0.4,0.1-0.5,0c-0.1,0,0-0.1,0-0.2c0-3,0-5.9,0-8.9
		c0-2.6,2.2-4.7,4.6-4.6c2.1,0.1,3.8,1.7,4.2,3.8c0,0.1,0,0.2,0.1,0.2C89.3,19.9,89.3,20.4,89.3,21z M88.7,20.1c0-0.4,0-0.7-0.1-1.1
		c-0.4-1.5-1.4-2.6-2.9-2.9c-1.5-0.3-2.7,0.2-3.6,1.3c-1.3,1.7-1.2,4.2,0.3,5.7c1.4,1.4,3.5,1.5,5,0.2
		C88.2,22.5,88.6,21.4,88.7,20.1z"/>
	<path class="st2" d="M19.9,39.7c-0.3-0.2-0.6-0.4-0.5-0.8c0-0.4,0.3-0.7,0.7-0.8c0.4-0.1,0.7,0.2,0.9,0.5c0.1,0.4,0,0.8-0.4,1
		c-0.1,0-0.1,0.1-0.2,0.1C20.2,39.7,20,39.7,19.9,39.7z"/>
	<path class="st2" d="M1.3,19.8c0.1,0,0.1-0.1,0.1-0.2c0.2-0.3,0.5-0.4,0.9-0.3c0.3,0.1,0.6,0.4,0.6,0.8c0,0.3-0.2,0.7-0.6,0.8
		c-0.3,0.1-0.7,0-0.9-0.3c0-0.1,0-0.1-0.1-0.2C1.3,20.2,1.3,20,1.3,19.8z"/>
	<path class="st2" d="M20.4,0.5c0,0.1,0.1,0.1,0.2,0.1C21,1,21,1.6,20.7,1.9c-0.3,0.3-0.8,0.3-1.1,0c-0.3-0.3-0.3-0.9,0.1-1.2
		c0.1,0,0.2-0.1,0.2-0.1C20,0.5,20.2,0.5,20.4,0.5z"/>
	<path class="st1" d="M12.9,31.4c1.6,0,3.1-0.2,4.4-1c3.3-1.7,5.2-4.5,5.5-8.3c0.3-3.4-1-6.3-3.5-8.5c-0.2-0.2-0.2-0.2,0-0.4
		c3.3-2.9,8.5-2.9,11.9-0.1c0.1,0.1,0.2,0.2,0.3,0.3c4.4,8.1-0.3,18.5-9.2,20c-3.3,0.6-6.3-0.1-9.1-1.8C13.1,31.6,13,31.5,12.9,31.4
		z"/>
	<path class="st2" d="M58.8,17.7c0-0.2,0-0.3,0-0.4c0-1.9,0-3.9,0-5.8c0-0.2,0.1-0.3,0.3-0.3c0.2,0,0.4-0.1,0.4,0.3
		c0,2.9,0,5.8,0,8.7c0,1.9-0.8,3.4-2.4,4.3c-2.1,1.2-4.6,0.4-5.8-1.7c-1.5-2.6-0.4-6,2.2-7.1c1.8-0.7,3.8-0.1,5,1.5
		C58.5,17.3,58.6,17.4,58.8,17.7z M58.8,20.2c0-0.5-0.1-1-0.2-1.5c-0.9-2.6-3.9-3.6-5.9-1.8c-1.7,1.5-1.9,4.3-0.4,6.1
		c1.2,1.4,3.2,1.8,4.7,0.7C58.2,22.9,58.8,21.7,58.8,20.2z"/>
	<path class="st1" d="M75.1,20.1c-1.3,0-2.5,0-3.8,0c-0.2,0-0.3,0-0.3,0.3c0.2,3.1,3.1,4.7,5.7,3.5c0.7-0.4,1.2-1,1.5-1.8
		c0.1-0.2,0.5-0.4,0.7-0.2c0.1,0.1,0,0.1,0,0.2c-0.5,1.5-1.5,2.4-3,2.8c-2.7,0.6-5.1-1.1-5.6-3.9c-0.4-2.6,1.2-5.1,3.6-5.6
		c2.1-0.4,4.2,0.9,4.9,3.1c0.2,0.4,0.2,0.9,0.3,1.4c0,0.2,0,0.3-0.3,0.3C77.7,20.1,76.4,20.1,75.1,20.1z M74.8,19.5
		c1.2,0,2.3,0,3.5,0c0.2,0,0.3-0.1,0.2-0.3c-0.3-1.4-1.1-2.4-2.4-2.9c-2.1-0.9-4.5,0.5-5,3c0,0.2,0.1,0.2,0.2,0.2
		C72.5,19.5,73.6,19.5,74.8,19.5z"/>
	<path class="st1" d="M69.2,18.4c-0.2,0-0.4,0-0.6,0c-0.1,0-0.2-0.1-0.2-0.2c-0.7-1.4-1.8-2.2-3.4-2.2c-1.7,0-3.2,1.3-3.6,3.2
		c-0.5,2.2,0.8,4.4,2.8,5c1.8,0.5,3.5-0.4,4.2-2.1c0.1-0.2,0.6-0.3,0.7-0.2c0.1,0.1,0,0.2,0,0.2c-0.7,1.7-1.9,2.7-3.6,2.8
		c-3.4,0.3-5.7-3.2-4.6-6.5c0.9-2.7,3.8-3.9,6.1-2.6C68.1,16.3,69,17.4,69.2,18.4z"/>
	<path class="st1" d="M46.6,23.8c0,1.6,0,3.3,0,4.9c0,0.3-0.2,0.3-0.4,0.3c-0.2,0-0.3-0.1-0.3-0.3c0-3.2,0-6.4,0-9.6
		c0-0.4,0-0.7,0.1-1.1c0.4-1.5,1.5-2.5,3-2.6c0.3,0,0.6,0,0.9,0c0.4,0,0.2,0.3,0.2,0.5c0,0.2-0.1,0.2-0.2,0.2c-0.3,0-0.7,0-1,0.1
		c-1.3,0.2-2.2,1.2-2.3,2.5c0,0.3,0,0.5,0,0.8C46.6,20.8,46.6,22.3,46.6,23.8z"/>
	<path class="st3" d="M11.7,20.2c0.5,0,1,0,1.6,0c0.2,0,0.3,0,0.4,0.3c0,0.5,0.1,1.1,0.3,1.6c0.1,0.2,0,0.2-0.2,0.3
		c-1,0.4-2.1,0.8-3.1,1.2c-0.2,0.1-0.3,0-0.3-0.2c-0.3-0.9-0.4-1.9-0.5-2.9c0-0.3,0-0.4,0.3-0.3C10.6,20.2,11.1,20.2,11.7,20.2z"/>
	<path class="st3" d="M13.9,22.6c0.1,0,0.1,0.1,0.2,0.1c0.2,0.5,0.5,1,0.8,1.5c0.1,0.1,0.1,0.2-0.1,0.3c-0.9,0.8-1.7,1.5-2.6,2.3
		c-0.1,0.1-0.2,0.1-0.3,0c-0.6-0.8-1.1-1.7-1.5-2.7c0-0.1,0-0.2,0.1-0.3C11.7,23.4,12.7,23,13.9,22.6C13.9,22.6,13.9,22.6,13.9,22.6
		z"/>
	<path class="st3" d="M15,15.8c-0.1,0.1-0.1,0.2-0.1,0.2c-0.3,0.5-0.6,0.9-0.8,1.5c-0.1,0.2-0.1,0.2-0.3,0.1c-1-0.4-2.1-0.8-3.1-1.2
		c-0.2-0.1-0.3-0.1-0.2-0.4c0.4-0.9,0.9-1.8,1.4-2.6c0.1-0.1,0.2-0.2,0.3-0.1c0.9,0.8,1.8,1.5,2.6,2.3C14.9,15.7,15,15.7,15,15.8z"
		/>
	<path class="st3" d="M15.1,24.6c0.1,0,0.1,0.1,0.2,0.1c0.4,0.4,0.8,0.8,1.3,1.1c0.1,0.1,0.1,0.1,0.1,0.3c-0.6,1-1.1,2-1.7,3.1
		c-0.1,0.2-0.2,0.1-0.3,0c-0.8-0.5-1.6-1.2-2.3-2c-0.1-0.1-0.1-0.2,0-0.3c0.9-0.8,1.8-1.5,2.7-2.3C15.1,24.7,15.1,24.6,15.1,24.6z"
		/>
	<path class="st3" d="M18.8,13.2c0,0.1,0,0.2-0.1,0.2c-0.6,0.1-1.1,0.3-1.6,0.6c-0.2,0.1-0.2-0.1-0.3-0.2c-0.5-0.9-1-1.7-1.4-2.6
		c-0.4-0.6-0.4-0.6,0.3-1c0.7-0.3,1.4-0.6,2.2-0.8c0.2-0.1,0.4-0.1,0.4,0.3c0.2,1.1,0.4,2.2,0.5,3.3C18.8,13.1,18.8,13.2,18.8,13.2z
		"/>
	<path class="st3" d="M16.7,14.2c0,0.1-0.1,0.1-0.1,0.2c-0.5,0.3-0.9,0.7-1.3,1.1c-0.1,0.1-0.2,0.1-0.3,0c-0.9-0.8-1.7-1.5-2.6-2.3
		c-0.1-0.1-0.1-0.2,0-0.2c0.7-0.8,1.4-1.5,2.3-2c0.1-0.1,0.2-0.1,0.3,0C15.5,12,16.1,13.1,16.7,14.2C16.7,14.1,16.7,14.2,16.7,14.2z
		"/>
	<path class="st3" d="M11.6,20c-0.5,0-1.1,0-1.6,0c-0.2,0-0.2-0.1-0.2-0.2c0-1,0.2-2,0.5-3c0.1-0.2,0.1-0.2,0.3-0.1
		c1,0.4,2.1,0.8,3.1,1.2c0.2,0.1,0.2,0.1,0.2,0.3c-0.2,0.5-0.3,1.1-0.3,1.6c0,0.2-0.1,0.2-0.2,0.2C12.7,20,12.2,20,11.6,20z"/>
	<path class="st3" d="M18.9,26.9c-0.2,0.9-0.3,1.7-0.4,2.6c0,0.1-0.1,0.2-0.2,0.2c-0.2,0.1-0.4,0.2-0.5,0.3c-0.5,0.4-1,0.4-1.5,0.1
		c-0.3-0.2-0.7-0.3-1-0.5c-0.1-0.1-0.2-0.2-0.1-0.3c0.6-1,1.1-2,1.7-3.1c0.1-0.1,0.2-0.2,0.3-0.1c0.5,0.3,1,0.5,1.5,0.6
		C18.8,26.8,18.9,26.8,18.9,26.9z"/>
	<path class="st4" d="M8.3,20.2c0.3,0,0.7,0,1,0c0.1,0,0.2,0,0.2,0.2c0.1,1.1,0.2,2.2,0.6,3.2c0,0.1,0,0.2-0.1,0.2
		c-0.6,0.2-1.3,0.5-1.9,0.7c-0.2,0.1-0.2,0-0.3-0.2c-0.3-1.1-0.6-2.1-0.6-3.3c0-0.2,0-0.4,0-0.6c0-0.2,0-0.3,0.3-0.3
		C7.7,20.2,8,20.2,8.3,20.2z"/>
	<path class="st4" d="M11.9,13.2c0,0-0.1,0.1-0.1,0.1c-0.6,0.8-1.1,1.7-1.5,2.7c-0.1,0.2-0.1,0.2-0.3,0.1c-0.6-0.2-1.3-0.5-1.9-0.7
		c-0.1-0.1-0.2-0.1-0.1-0.3c0.5-1.3,1.1-2.4,2-3.5c0.1-0.1,0.2-0.2,0.3,0c0.5,0.5,1,0.9,1.6,1.4C11.8,13,11.9,13.1,11.9,13.2z"/>
	<path class="st4" d="M18.1,9.1c0,0.1,0,0.2-0.2,0.2c-1,0.2-2,0.6-2.9,1.1c-0.1,0.1-0.2,0-0.3-0.1c-0.3-0.6-0.7-1.2-1-1.9
		c-0.1-0.2,0-0.2,0.1-0.3c1-0.5,2-0.9,3-1.2c0.2-0.1,0.4-0.1,0.7-0.2c0.1,0,0.2,0,0.2,0.1C17.9,7.6,18,8.4,18.1,9.1z"/>
	<path class="st4" d="M10.1,28.7c-0.1,0-0.2-0.1-0.2-0.2c-0.8-1-1.4-2.2-1.9-3.4c-0.1-0.2-0.1-0.3,0.1-0.4c0.6-0.2,1.2-0.4,1.8-0.7
		c0.2-0.1,0.3,0,0.4,0.2c0.4,1,0.9,1.9,1.5,2.7c0.1,0.1,0.1,0.2,0,0.3c-0.5,0.4-1.1,0.9-1.6,1.4C10.2,28.6,10.1,28.6,10.1,28.7z"/>
	<path class="st4" d="M22.1,9.1c0.1-0.6,0.2-1.3,0.3-1.9c0.1-0.5,0.1-0.5,0.5-0.3c1.2,0.3,2.2,0.7,3.3,1.3c0.2,0.1,0.3,0.2,0.1,0.5
		c-0.3,0.5-0.6,1.1-0.9,1.7c-0.1,0.2-0.2,0.2-0.4,0.1c-0.9-0.5-1.8-0.8-2.7-1C22.2,9.3,22.1,9.3,22.1,9.1z"/>
	<path class="st4" d="M20.1,6.5c0.7,0.1,1.3,0.1,1.9,0.2c0.2,0,0.2,0.1,0.2,0.3c-0.1,0.6-0.2,1.3-0.3,1.9c0,0.2-0.1,0.3-0.4,0.3
		C20.8,9.1,20,9,19.3,9.1c-0.2,0-0.4,0-0.7,0.1c-0.1,0-0.2,0-0.2-0.2c-0.1-0.7-0.2-1.4-0.3-2c0-0.2,0-0.3,0.2-0.3
		C18.9,6.6,19.5,6.6,20.1,6.5z"/>
	<path class="st4" d="M13.4,8.5c0.1,0,0.1,0.1,0.2,0.1c0.3,0.6,0.7,1.2,1,1.8c0.1,0.2,0.1,0.2-0.1,0.3c-0.9,0.6-1.6,1.2-2.3,2
		c-0.1,0.1-0.2,0.2-0.3,0c-0.5-0.4-1-0.9-1.5-1.3c-0.2-0.1-0.2-0.2-0.1-0.4c0.9-1,1.9-1.9,3-2.6C13.4,8.5,13.4,8.5,13.4,8.5z"/>
	<path class="st4" d="M8.3,20c-0.3,0-0.6,0-0.9,0C7.1,20,7,19.9,7,19.7c0.1-1.2,0.2-2.3,0.6-3.5c0.2-0.6,0.2-0.6,0.8-0.4
		c0.5,0.2,1,0.4,1.4,0.5c0.2,0.1,0.3,0.1,0.2,0.4c-0.3,1-0.5,2-0.5,3c0,0.2-0.1,0.3-0.3,0.3C8.9,19.9,8.6,20,8.3,20z"/>
	<path class="st4" d="M13.1,31.1c-0.4,0.1-0.7-0.1-1-0.4c-0.6-0.5-1.2-1.1-1.7-1.7c-0.1-0.1-0.1-0.2,0-0.3c0.5-0.4,1-0.9,1.6-1.4
		c0.1-0.1,0.2-0.1,0.3,0c0.7,0.8,1.5,1.5,2.3,2c0.1,0.1,0.1,0.2,0.1,0.3c-0.2,0.4-0.5,0.8-0.7,1.2c-0.1,0.1-0.2,0.2-0.3,0.2
		C13.5,31.1,13.3,31.1,13.1,31.1z"/>
	<path class="st5" d="M22.8,35.3c0-0.2,0.1-0.2,0.2-0.3c1.5-0.3,2.8-0.9,4.2-1.6c0.1-0.1,0.2-0.1,0.3,0.1c0.2,0.4,0.4,0.8,0.6,1.1
		c0.1,0.1,0.1,0.2-0.1,0.3c-1.5,0.9-3.1,1.4-4.8,1.8c-0.1,0-0.2,0-0.2-0.1C23,36.1,22.9,35.7,22.8,35.3z"/>
	<path class="st5" d="M32.5,31.1c0,0.1-0.1,0.1-0.1,0.1c-1.1,1.3-2.4,2.4-3.8,3.4c-0.1,0.1-0.2,0.1-0.3-0.1c-0.2-0.4-0.4-0.7-0.6-1
		c-0.1-0.2-0.1-0.3,0.1-0.4c1.1-0.7,2.1-1.5,3-2.5c0.1-0.1,0.2-0.3,0.3-0.4c0.1-0.1,0.2-0.1,0.3,0c0.3,0.3,0.6,0.6,1,0.9
		C32.4,31,32.5,31,32.5,31.1z"/>
	<path class="st5" d="M17.5,35.2c-0.1,0.5-0.2,0.9-0.2,1.4c0,0.2-0.1,0.2-0.2,0.2c-1.2-0.2-2.3-0.6-3.4-1.1
		c-0.5-0.2-0.9-0.4-1.3-0.7c-0.1-0.1-0.2-0.2-0.1-0.3c0.2-0.3,0.4-0.7,0.6-1c0.1-0.2,0.2-0.3,0.5-0.1c0.8,0.4,1.5,0.8,2.4,1.1
		c0.6,0.2,1.2,0.3,1.7,0.5C17.4,35,17.5,35,17.5,35.2z"/>
	<path class="st5" d="M33.9,25.4c0.3,0.1,0.7,0.2,1,0.4c0.4,0.2,0.4,0.2,0.3,0.6c-0.6,1.6-1.4,3-2.4,4.3c-0.1,0.1-0.2,0.1-0.3,0
		c-0.3-0.3-0.7-0.6-1-0.9c-0.1-0.1-0.1-0.2,0-0.3c0.7-0.9,1.3-1.9,1.8-2.9c0.2-0.4,0.3-0.7,0.5-1.1C33.8,25.5,33.8,25.4,33.9,25.4z"
		/>
	<path class="st5" d="M20.1,37c-0.8,0-1.7,0-2.5-0.2c-0.2,0-0.2-0.1-0.2-0.3c0.1-0.4,0.2-0.8,0.2-1.2c0-0.2,0.1-0.2,0.2-0.2
		c1,0.2,2,0.2,2.9,0.2c0.5,0,1-0.1,1.5-0.2c0.2,0,0.3,0,0.3,0.2c0,0.4,0.1,0.8,0.2,1.2c0,0.2,0,0.3-0.2,0.3
		C21.8,36.9,20.9,37,20.1,37z"/>
	<path class="st3" d="M19.1,13.2c-0.1-0.7-0.2-1.3-0.3-1.9c-0.1-0.5-0.2-1-0.3-1.6c0-0.2,0-0.2,0.2-0.3c1-0.1,2-0.1,3,0
		c0.2,0,0.2,0.1,0.2,0.2c-0.1,0.6-0.2,1.2-0.3,1.8c0,0.1,0,0.2-0.1,0.2C20.5,12,19.8,12.5,19.1,13.2z"/>
	<path class="st5" d="M8.7,30.2c0.3,0.2,0.7,0.3,1,0.6c0.8,0.9,1.8,1.6,2.8,2.3c0.1,0.1,0.2,0.1,0.1,0.3c-0.2,0.4-0.4,0.8-0.6,1.1
		c-0.1,0.1-0.1,0.2-0.3,0.1c-0.8-0.5-1.6-1.1-2.4-1.8c-0.5-0.5-1-1-1.4-1.5c-0.1-0.1-0.1-0.2,0-0.3c0.2-0.2,0.5-0.4,0.7-0.6
		C8.6,30.3,8.7,30.2,8.7,30.2z"/>
	<path class="st4" d="M30,11.3c0,0.2-0.5,0.5-0.7,0.4c-0.8-0.4-1.7-0.7-2.6-0.8c-0.3,0-0.6-0.1-0.9-0.1c-0.3,0-0.3-0.1-0.2-0.4
		c0.3-0.6,0.7-1.2,1-1.8c0.1-0.2,0.2-0.2,0.3-0.1c1.1,0.7,2.1,1.6,3,2.6C30,11.2,30,11.2,30,11.3z"/>
	<path class="st3" d="M19.4,20c-0.3,0-0.5,0-0.8,0c-1.5,0-3,0-4.5,0c-0.2,0-0.3-0.1-0.3-0.3c0-0.5,0.1-1,0.3-1.5
		c0-0.2,0.1-0.2,0.3-0.2C16,18.6,17.6,19.3,19.4,20C19.3,19.9,19.3,19.9,19.4,20z"/>
	<path class="st3" d="M19.4,20.3c-0.4,0.2-0.8,0.3-1.2,0.5c-1.3,0.5-2.5,0.9-3.8,1.4c-0.2,0.1-0.3,0-0.4-0.2c-0.1-0.5-0.2-1-0.2-1.5
		c0-0.2,0-0.3,0.2-0.2C15.8,20.2,17.5,20.2,19.4,20.3C19.3,20.2,19.3,20.2,19.4,20.3z"/>
	<path class="st3" d="M19.9,19.4c-0.1-0.2-0.2-0.3-0.3-0.5c-0.8-1.4-1.6-2.9-2.4-4.3c-0.1-0.2-0.1-0.3,0.1-0.4
		c0.5-0.2,0.9-0.4,1.4-0.5c0.1,0,0.2,0,0.2,0.1C19.3,15.6,19.6,17.5,19.9,19.4C19.9,19.3,19.9,19.3,19.9,19.4z"/>
	<path class="st3" d="M20.2,20.9c0.1,0.7,0.2,1.4,0.4,2c0.2,1.1,0.4,2.2,0.6,3.3c0,0.2,0,0.3-0.2,0.3c-0.5,0.1-1,0.1-1.5,0
		c-0.2,0-0.2-0.1-0.2-0.3c0.3-1.6,0.5-3.2,0.8-4.8C20,21.4,20.1,21.2,20.2,20.9C20.1,20.9,20.1,20.9,20.2,20.9z"/>
	<path class="st3" d="M19.5,19.7c-1.2-0.4-2.3-0.9-3.4-1.3c-0.5-0.2-1.1-0.4-1.6-0.6c-0.2-0.1-0.2-0.2-0.1-0.4
		c0.2-0.5,0.5-0.9,0.8-1.4c0.1-0.1,0.2-0.2,0.3,0c1.3,1.2,2.7,2.4,4.1,3.5C19.4,19.6,19.4,19.6,19.5,19.7z"/>
	<path class="st3" d="M19.5,20.5c-0.7,0.6-1.3,1.1-1.9,1.7c-0.7,0.6-1.4,1.2-2.1,1.9c-0.2,0.2-0.3,0.2-0.4,0
		c-0.3-0.4-0.5-0.9-0.7-1.4c0-0.1-0.1-0.2,0.1-0.3C16,21.8,17.7,21.1,19.5,20.5C19.4,20.5,19.4,20.5,19.5,20.5z"/>
	<path class="st3" d="M19.9,20.8c-0.2,1.2-0.4,2.4-0.6,3.7c-0.1,0.6-0.2,1.2-0.3,1.8c0,0.2-0.1,0.3-0.3,0.2c-0.5-0.1-1-0.3-1.5-0.6
		c-0.1-0.1-0.2-0.1-0.1-0.3C18,24.1,18.9,22.5,19.9,20.8C19.8,20.9,19.8,20.9,19.9,20.8z"/>
	<path class="st3" d="M19.6,20.8c-0.3,0.6-0.6,1.2-0.9,1.7c-0.5,1-1.1,2-1.6,2.9c-0.1,0.2-0.2,0.2-0.4,0.1c-0.4-0.3-0.8-0.7-1.2-1
		c-0.1-0.1-0.1-0.2,0-0.3c1.3-1.2,2.7-2.3,4-3.5C19.5,20.8,19.5,20.8,19.6,20.8C19.5,20.8,19.6,20.8,19.6,20.8z"/>
	<path class="st3" d="M19.5,19.3C19.5,19.3,19.5,19.3,19.5,19.3c-0.1,0.1-0.2,0-0.2,0c-0.5-0.4-0.9-0.8-1.4-1.2
		c-0.8-0.7-1.6-1.4-2.4-2.1c-0.2-0.1-0.2-0.2,0-0.4c0.4-0.4,0.7-0.7,1.2-1c0.2-0.1,0.2-0.1,0.3,0.1c0.8,1.5,1.6,3,2.5,4.4
		C19.5,19.1,19.5,19.2,19.5,19.3z"/>
	<path class="st4" d="M20.1,5.1c0.8,0.1,1.5,0.1,2.2,0.2c0.2,0,0.2,0.1,0.2,0.3c-0.1,0.2-0.1,0.4-0.1,0.6c0,0.3-0.2,0.3-0.4,0.3
		c-0.6-0.1-1.2-0.1-1.8-0.1c-0.6,0-1.2,0-1.8,0.1c-0.4,0.1-0.4,0.1-0.5-0.3c0,0,0-0.1,0-0.1c-0.1-0.6-0.1-0.6,0.5-0.7
		C19,5.2,19.6,5.2,20.1,5.1z"/>
	<path class="st5" d="M34.5,20.6c-0.1,1.4-0.3,2.9-0.7,4.3c-0.1,0.2-0.2,0.3-0.3,0.2c-0.2-0.1-0.6-0.1-0.7-0.3
		c-0.1-0.2,0.1-0.5,0.2-0.8c0.3-1,0.4-2,0.5-3.1c0-0.6,0-0.6,0.7-0.6c0.1,0,0.1,0,0.2,0C34.5,20.2,34.6,20.3,34.5,20.6z"/>
	<path class="st4" d="M7.6,15.2C7.3,15.1,7,15,6.7,14.9c-0.1-0.1,0-0.2,0-0.2c0.5-1.3,1.1-2.4,1.9-3.5C9,10.6,9,10.6,9.6,11
		c0.3,0.3,0.3,0.3,0,0.6c-0.8,1-1.4,2.2-1.9,3.4C7.7,15.1,7.7,15.2,7.6,15.2z"/>
	<path class="st4" d="M17.7,6.3c0,0.2-0.1,0.2-0.2,0.2c-1.3,0.3-2.5,0.7-3.6,1.3c-0.2,0.1-0.4,0.1-0.5-0.2c0,0,0-0.1-0.1-0.1
		C13,7.1,13,7.1,13.6,6.8c1.2-0.6,2.4-1,3.6-1.3c0.2,0,0.3,0,0.3,0.2C17.6,5.9,17.6,6.1,17.7,6.3z"/>
	<path class="st4" d="M6.3,20.2c0.5,0,0.6,0,0.6,0.5c0,1.3,0.3,2.5,0.6,3.7c0.1,0.2,0,0.3-0.2,0.4c-0.2,0.1-0.4,0.1-0.6,0.2
		c-0.2,0.1-0.2,0-0.3-0.1C6.2,24,6,23.2,5.9,22.3c-0.1-0.6-0.1-1.2-0.2-1.7c0-0.2,0-0.4,0.3-0.3C6.1,20.2,6.2,20.2,6.3,20.2z"/>
	<path class="st5" d="M31.2,29.6c-0.1,0-0.2-0.1-0.2-0.2c-0.6-0.6-0.7-0.3-0.2-1.1c0.7-0.9,1.2-2,1.7-3.1c0.1-0.2,0.2-0.2,0.3-0.2
		c0.2,0.1,0.4,0.2,0.5,0.2c0.2,0.1,0.2,0.2,0.2,0.4c-0.5,1.4-1.2,2.7-2.1,3.8C31.4,29.5,31.3,29.5,31.2,29.6z"/>
	<path class="st5" d="M22.6,33.9c0-0.2,0.1-0.2,0.3-0.3c1.2-0.2,2.4-0.7,3.5-1.3c0.3-0.1,0.4-0.2,0.5,0.2c0,0.1,0.1,0.1,0.1,0.2
		c0.2,0.5,0.2,0.5-0.2,0.7c-1.2,0.7-2.5,1.1-3.8,1.4c-0.1,0-0.2,0-0.2-0.2C22.7,34.4,22.6,34.1,22.6,33.9z"/>
	<path class="st5" d="M31,29.8c0,0.1-0.1,0.1-0.1,0.2c-1,1.1-2,2-3.2,2.8c-0.2,0.1-0.3,0.1-0.4-0.1c-0.1-0.2-0.2-0.4-0.3-0.6
		c-0.1-0.1,0-0.2,0.1-0.3c1.1-0.7,2.1-1.6,3-2.6c0.2-0.2,0.3-0.2,0.4,0c0.1,0.2,0.3,0.3,0.4,0.4C31,29.7,31,29.8,31,29.8z"/>
	<path class="st4" d="M10,11.1c0,0-0.1,0-0.1-0.1c-0.1-0.1-0.2-0.2-0.4-0.3c-0.4-0.3-0.3-0.3,0-0.6c0.9-1,1.9-1.9,3-2.6
		c0.4-0.2,0.4-0.2,0.6,0.1c0.3,0.6,0.3,0.6-0.2,1c-0.9,0.7-1.8,1.4-2.6,2.3C10.2,11,10.1,11,10,11.1z"/>
	<path class="st4" d="M31,10.4C31,10.4,31,10.5,31,10.4c-0.1,0.1-0.1,0.2-0.2,0.2c-0.2,0.1-0.4,0.5-0.6,0.4c-0.2,0-0.3-0.3-0.5-0.5
		c-0.8-0.8-1.6-1.5-2.6-2.1c-0.2-0.1-0.3-0.3-0.1-0.5c0.1-0.1,0.2-0.3,0.2-0.4c0.1-0.3,0.2-0.2,0.4-0.1c1.2,0.8,2.3,1.7,3.2,2.8
		C31,10.3,31,10.3,31,10.4z"/>
	<path class="st4" d="M9.1,29.5c-0.1,0-0.2-0.1-0.2-0.2c-0.7-0.9-1.3-1.9-1.8-3c-0.1-0.3-0.2-0.6-0.4-0.9c-0.1-0.1,0-0.2,0.1-0.3
		C7,25.2,7.2,25.1,7.4,25c0.2-0.1,0.3,0,0.3,0.2c0.5,1.3,1.1,2.4,1.9,3.5c0.1,0.1,0.1,0.2,0,0.3C9.5,29.1,9.3,29.3,9.1,29.5
		C9.1,29.5,9.1,29.5,9.1,29.5z"/>
	<path class="st5" d="M20.1,35c-0.7,0.1-1.4,0-2.1-0.1c-0.2,0-0.3-0.1-0.2-0.3c0-0.3,0.1-0.5,0.1-0.8c0-0.1,0.1-0.1,0.2-0.1
		c0.9,0.2,1.9,0.2,2.8,0.1c0.4,0,0.8-0.1,1.1-0.1c0.2,0,0.3,0,0.3,0.3c0,0.2,0,0.4,0.1,0.6c0.1,0.2,0,0.3-0.2,0.3
		C21.5,35,20.8,35.1,20.1,35z"/>
	<path class="st5" d="M17.7,33.8c-0.1,0.4-0.1,0.6-0.2,0.9c0,0.1-0.1,0.1-0.2,0.1c-1-0.2-2-0.5-2.9-1c-0.4-0.2-0.8-0.4-1.2-0.6
		c-0.1-0.1-0.2-0.1-0.1-0.2c0.1-0.1,0.2-0.3,0.2-0.4c0.2-0.4,0.2-0.4,0.6-0.2c1.1,0.6,2.2,1,3.4,1.3C17.5,33.6,17.7,33.6,17.7,33.8z
		"/>
	<path class="st4" d="M22.6,6.3c0-0.3,0.1-0.5,0.1-0.8c0-0.2,0.2-0.1,0.3-0.1c0.9,0.2,1.8,0.5,2.7,0.9c0.4,0.2,0.9,0.4,1.3,0.6
		c0.2,0.1,0.3,0.2,0.1,0.4c-0.1,0.2-0.2,0.4-0.3,0.6C26.7,8,26.6,8,26.5,8c-1.2-0.7-2.4-1.1-3.7-1.4C22.6,6.5,22.6,6.5,22.6,6.3z"/>
	<path class="st4" d="M6.3,19.9c-0.5,0-0.5,0-0.5-0.6c0-1.4,0.3-2.7,0.7-4c0.1-0.2,0.1-0.3,0.3-0.2c0.2,0.1,0.4,0.2,0.6,0.2
		c0.1,0,0.1,0.1,0.1,0.2c-0.3,1-0.5,2-0.6,3c0,0.3,0,0.6-0.1,0.9c0,0.3-0.1,0.4-0.4,0.3C6.4,19.9,6.3,19.9,6.3,19.9z"/>
	<path class="st4" d="M33.6,14.8c0,0.1-0.1,0.1-0.2,0.1c-0.1,0.1-0.2,0-0.3-0.1c-0.7-1.1-1.7-1.9-2.4-3c-0.3-0.6-0.4-0.5,0.1-0.9
		c0.1-0.1,0.1-0.1,0.2-0.2c0.1-0.1,0.2-0.1,0.3,0C32.3,11.9,33,13.3,33.6,14.8C33.6,14.7,33.6,14.8,33.6,14.8z"/>
	<path class="st5" d="M34,19.9c-0.5,0-0.5,0-0.6-0.5c-0.1-0.7-0.1-1.4-0.3-2.1c-0.1-0.5-0.2-1.1-0.4-1.6c-0.1-0.2-0.1-0.3,0.1-0.3
		c0.2,0,0.3-0.2,0.4,0.1c0.7,1.2,1.1,2.5,1.2,3.9C34.5,20,34.5,19.9,34,19.9z"/>
	<path class="st3" d="M21.3,26.4c-0.3-1.9-0.6-3.7-1-5.6c0.1,0,0.1,0.1,0.2,0.2c0.6,1,1.1,2,1.7,3c0.1,0.2,0.1,0.3,0.1,0.5
		c-0.2,0.6-0.5,1.2-0.8,1.8C21.4,26.3,21.4,26.3,21.3,26.4z"/>
	<path class="st3" d="M19.2,13.8c0.5,0.4,0.9,0.9,1.3,1.3c0.2,0.3,0.3,0.5,0.2,0.9c-0.2,1.1-0.4,2.2-0.6,3.3c0,0,0,0-0.1,0.1
		C19.8,17.4,19.5,15.6,19.2,13.8C19.2,13.8,19.2,13.8,19.2,13.8z"/>
	<path class="st3" d="M25.2,10.8c-1.2,0-2.4,0.3-3.5,0.7c0.1-0.7,0.2-1.3,0.3-1.9c0-0.1,0.1-0.1,0.1-0.1
		C22.6,9.5,24.7,10.3,25.2,10.8z"/>
	<path class="st5" d="M34.7,21.9c0.2,1,0.6,1.9,1,2.8c0.2,0.3-0.1,0.6-0.2,0.9c0,0.1-0.1,0.1-0.2,0c-0.4-0.1-0.8-0.3-1.2-0.4
		C34,25.2,33.9,25.1,34,25C34.3,24,34.5,23,34.7,21.9z"/>
	<path class="st3" d="M21.1,26.9c-0.7,1-1.4,1.8-2.4,2.5c0.1-0.9,0.3-1.6,0.4-2.4c0-0.1,0.1-0.1,0.2-0.1
		C19.9,26.9,20.4,26.9,21.1,26.9z"/>
	<path class="st5" d="M10.2,30.9c0.6,0.1,1.1,0.3,1.7,0.3c0.5,0,0.9,0.4,1.3,0.6c0.1,0.1,0.1,0.1,0,0.2c-0.1,0.2-0.2,0.3-0.3,0.5
		c-0.2,0.4-0.2,0.4-0.6,0.1c-0.7-0.5-1.4-1-2.1-1.6C10.3,31.1,10.3,31,10.2,30.9z"/>
	<path class="st5" d="M5.4,27.2c0.3,0.3,0.5,0.6,0.8,0.9c0.6,0.7,1.3,1.2,2,1.7c0.3,0.2,0.3,0.2,0,0.5c-0.1,0.1-0.2,0.1-0.3,0.2
		c-0.3,0.3-0.3,0.3-0.6,0c-0.7-1-1.4-2-1.9-3.2C5.4,27.3,5.4,27.3,5.4,27.2z"/>
	<path class="st4" d="M11.9,31c-0.5,0-1-0.2-1.4-0.3c-0.4-0.1-0.9-0.3-1.2-0.7c-0.1-0.1-0.2-0.2,0-0.4c0.1-0.1,0.2-0.2,0.3-0.2
		c0.4-0.3,0.4-0.3,0.8,0.1c0.5,0.5,1,1,1.5,1.4C11.9,30.9,11.9,31,11.9,31z"/>
	<path class="st2" d="M36.6,29.5c0,0.4-0.4,0.8-0.8,0.8c-0.4,0-0.8-0.4-0.8-0.8c0-0.5,0.4-0.8,0.8-0.8C36.2,28.7,36.6,29,36.6,29.5z
		"/>
	<path class="st2" d="M37.9,26.5c0,0.5-0.4,0.8-0.8,0.8c-0.4,0-0.8-0.4-0.8-0.8c0-0.5,0.4-0.8,0.8-0.8
		C37.5,25.7,37.9,26.1,37.9,26.5z"/>
	<path class="st2" d="M32.5,34.5c0,0.5-0.4,0.8-0.8,0.8c-0.4,0-0.8-0.4-0.8-0.8c0-0.5,0.4-0.8,0.8-0.8C32.2,33.6,32.5,34,32.5,34.5z
		"/>
	<path class="st2" d="M35.8,11.5c-0.4,0-0.8-0.4-0.8-0.8c0-0.5,0.3-0.8,0.8-0.8c0.4,0,0.8,0.4,0.8,0.8
		C36.6,11.2,36.2,11.5,35.8,11.5z"/>
	<path class="st2" d="M39,20.1c0,0.5-0.3,0.8-0.8,0.8c-0.4,0-0.8-0.4-0.8-0.8c0-0.4,0.4-0.8,0.8-0.8C38.6,19.3,39,19.6,39,20.1z"/>
	<path class="st2" d="M5.3,10.8c0,0.4-0.4,0.8-0.8,0.8c-0.4,0-0.8-0.4-0.7-0.8c0-0.4,0.4-0.8,0.8-0.8C4.9,9.9,5.3,10.3,5.3,10.8z"/>
	<ellipse transform="matrix(8.043320e-03 -1 1 8.043320e-03 -25.0129 33.7098)" class="st2" cx="4.5" cy="29.5" rx="0.8" ry="0.8"/>
	<path class="st2" d="M31.7,4.9c0.4,0,0.8,0.4,0.8,0.8c0,0.4-0.4,0.8-0.8,0.8c-0.4,0-0.8-0.4-0.8-0.8C30.9,5.3,31.3,4.9,31.7,4.9z"
		/>
	<path class="st2" d="M29.2,35.5c0.4,0,0.8,0.3,0.8,0.8c0,0.4-0.4,0.8-0.8,0.8c-0.4,0-0.8-0.4-0.8-0.8
		C28.4,35.9,28.7,35.5,29.2,35.5z"/>
	<path class="st2" d="M37.1,14.5c-0.4,0-0.8-0.4-0.8-0.8c0-0.4,0.4-0.8,0.8-0.8c0.4,0,0.8,0.4,0.8,0.8
		C37.9,14.1,37.5,14.5,37.1,14.5z"/>
	<path class="st2" d="M29.1,4.7c-0.4,0-0.8-0.4-0.8-0.8c0-0.4,0.4-0.8,0.8-0.8c0.4,0,0.8,0.4,0.8,0.8C29.9,4.3,29.6,4.7,29.1,4.7z"
		/>
	<path class="st2" d="M37.9,17.7c-0.4,0-0.8-0.4-0.8-0.8c0-0.5,0.4-0.8,0.8-0.8c0.4,0,0.8,0.4,0.8,0.8
		C38.7,17.3,38.4,17.7,37.9,17.7z"/>
	<path class="st2" d="M37.9,24.2c-0.4,0-0.8-0.4-0.8-0.8c0-0.5,0.4-0.8,0.8-0.8c0.4,0,0.8,0.4,0.8,0.8
		C38.7,23.8,38.3,24.2,37.9,24.2z"/>
	<path class="st2" d="M27.1,2.5c0,0.5-0.3,0.8-0.8,0.8c-0.5,0-0.8-0.4-0.8-0.8c0-0.4,0.4-0.8,0.8-0.8C26.7,1.7,27.1,2,27.1,2.5z"/>
	<path class="st2" d="M34.7,8c0,0.5-0.3,0.8-0.8,0.8c-0.4,0-0.8-0.4-0.8-0.8c0-0.4,0.3-0.8,0.8-0.8C34.4,7.2,34.7,7.6,34.7,8z"/>
	<path class="st2" d="M34,33c-0.4,0-0.8-0.4-0.8-0.8c0-0.5,0.4-0.8,0.8-0.8c0.4,0,0.8,0.4,0.8,0.8C34.7,32.6,34.4,33,34,33z"/>
	<path class="st2" d="M14.7,2.5c0,0.5-0.3,0.8-0.8,0.8c-0.4,0-0.8-0.4-0.8-0.8c0-0.4,0.4-0.8,0.8-0.8C14.4,1.7,14.7,2,14.7,2.5z"/>
	<path class="st2" d="M3.1,27.3c-0.4,0-0.8-0.4-0.8-0.8c0-0.4,0.4-0.8,0.8-0.8c0.4,0,0.8,0.4,0.8,0.8C3.9,27,3.6,27.3,3.1,27.3z"/>
	<path class="st2" d="M23.3,2.4c-0.4,0-0.8-0.3-0.8-0.8c0-0.5,0.4-0.8,0.8-0.8c0.4,0,0.8,0.4,0.8,0.8C24.1,2.1,23.7,2.4,23.3,2.4z"
		/>
	<path class="st2" d="M11.1,4.7c-0.4,0-0.8-0.3-0.8-0.8c0-0.5,0.3-0.8,0.8-0.8c0.4,0,0.8,0.4,0.8,0.8C11.9,4.3,11.5,4.7,11.1,4.7z"
		/>
	<path class="st2" d="M17,2.4c-0.4,0-0.8-0.3-0.8-0.8c0-0.4,0.3-0.8,0.8-0.8c0.4,0,0.8,0.4,0.8,0.8C17.8,2.1,17.4,2.4,17,2.4z"/>
	<path class="st2" d="M5.5,32.2c0-0.5,0.3-0.8,0.8-0.8c0.4,0,0.8,0.4,0.8,0.8c0,0.4-0.3,0.8-0.8,0.8C5.9,33,5.5,32.6,5.5,32.2z"/>
	<path class="st2" d="M11.1,35.5c0.4,0,0.8,0.4,0.8,0.8c0,0.4-0.4,0.8-0.8,0.8c-0.4,0-0.8-0.4-0.8-0.8
		C10.3,35.9,10.6,35.5,11.1,35.5z"/>
	<path class="st2" d="M27.1,37.7c0,0.5-0.4,0.8-0.8,0.8c-0.4,0-0.8-0.4-0.8-0.8c0-0.4,0.4-0.8,0.8-0.8
		C26.7,36.9,27.1,37.3,27.1,37.7z"/>
	<path class="st2" d="M6.3,7.2c0.4,0,0.8,0.4,0.8,0.8c0,0.4-0.4,0.8-0.8,0.8C5.9,8.9,5.5,8.5,5.5,8C5.5,7.6,5.9,7.2,6.3,7.2z"/>
	<path class="st2" d="M17.8,38.6c0,0.5-0.3,0.8-0.8,0.8c-0.4,0-0.8-0.4-0.8-0.8c0-0.4,0.4-0.8,0.8-0.8
		C17.4,37.7,17.8,38.1,17.8,38.6z"/>
	<path class="st2" d="M23.2,39.4c-0.4,0-0.8-0.4-0.8-0.8c0-0.4,0.4-0.8,0.8-0.8c0.4,0,0.8,0.4,0.8,0.8C24,39,23.7,39.4,23.2,39.4z"
		/>
	<path class="st2" d="M8.5,4.9c0.4,0,0.8,0.4,0.8,0.8c0,0.4-0.4,0.8-0.8,0.8c-0.4,0-0.8-0.4-0.8-0.8C7.8,5.3,8.1,4.9,8.5,4.9z"/>
	<path class="st2" d="M14.7,37.7c0,0.5-0.3,0.8-0.8,0.8c-0.4,0-0.8-0.3-0.8-0.8c0-0.4,0.4-0.8,0.8-0.8
		C14.4,36.9,14.7,37.3,14.7,37.7z"/>
	<path class="st2" d="M8.5,33.6c0.4,0,0.8,0.4,0.8,0.8c0,0.4-0.4,0.8-0.8,0.8c-0.4,0-0.8-0.4-0.8-0.8C7.7,34,8.1,33.6,8.5,33.6z"/>
	<path class="st2" d="M3.2,14.5c-0.4,0-0.8-0.3-0.8-0.8c0-0.4,0.3-0.8,0.8-0.8c0.4,0,0.8,0.3,0.8,0.8C3.9,14.1,3.6,14.5,3.2,14.5z"
		/>
	<path class="st2" d="M2.3,24.1c-0.4,0-0.8-0.3-0.8-0.8c0-0.4,0.4-0.8,0.8-0.8c0.4,0,0.8,0.4,0.8,0.8C3.1,23.8,2.8,24.1,2.3,24.1z"
		/>
	<path class="st2" d="M2.3,17.6c-0.4,0-0.8-0.3-0.8-0.8c0-0.5,0.3-0.8,0.8-0.8c0.4,0,0.8,0.4,0.8,0.8C3.1,17.3,2.8,17.6,2.3,17.6z"
		/>
	<path class="st3" d="M22.4,23.9c-0.6-1.1-1.2-2.1-1.8-3.2c0.1-0.1,0.1,0,0.2,0c0.6,0.5,1.2,1,1.7,1.5c0.1,0.1,0.2,0.1,0.2,0.3
		C22.6,23,22.5,23.4,22.4,23.9z"/>
	<path class="st3" d="M20.4,19.4c0.2-1.2,0.4-2.4,0.6-3.7c0.3,0.4,0.5,0.8,0.7,1.2c0,0.1,0,0.1,0,0.2C21.3,17.9,20.9,18.6,20.4,19.4
		C20.4,19.3,20.4,19.3,20.4,19.4z"/>
	<path class="st4" d="M16.6,30.5c-0.8,0.3-1.5,0.5-2.2,0.6c-0.2,0-0.2,0-0.1-0.2c0.2-0.3,0.4-0.7,0.6-1c0-0.1,0.1-0.2,0.2-0.1
		C15.5,30,16,30.2,16.6,30.5z"/>
	<path class="st3" d="M20.8,20.5c0.3,0,0.5,0.2,0.7,0.2c0.2,0.1,0.4,0.2,0.7,0.2c0.6,0.2,0.7,0.4,0.5,1c0,0.1-0.1,0.2-0.1,0.1
		C22,21.6,21.4,21.1,20.8,20.5z"/>
	<path class="st3" d="M20.7,19.4c0.4-0.7,0.8-1.4,1.2-2.1c0.2,0.3,0.2,0.5,0.3,0.8c0,0.1,0,0.1-0.1,0.2c-0.4,0.4-0.9,0.7-1.3,1.1
		C20.8,19.3,20.8,19.3,20.7,19.4z"/>
	<path class="st3" d="M20.9,20.2c0.5,0,1.1,0,1.6,0c0.2,0,0.2,0.1,0.2,0.2c0,0.1,0,0.2,0,0.3c0,0.1,0,0.2-0.1,0.1
		C22,20.7,21.4,20.5,20.9,20.2C20.9,20.2,20.9,20.2,20.9,20.2z"/>
	<path class="st3" d="M20.8,19.6c0.4-0.4,0.9-0.8,1.3-1.1c0.1-0.1,0.2-0.1,0.2,0.1c0.2,0.5,0.2,0.5-0.3,0.7
		C21.6,19.4,21.2,19.6,20.8,19.6C20.8,19.7,20.8,19.7,20.8,19.6z"/>
	<path class="st3" d="M20.9,19.9c0.3-0.1,0.7-0.3,1-0.4c0.1,0,0.2-0.1,0.3-0.1c0.3-0.1,0.3-0.1,0.4,0.2c0,0.2,0,0.3-0.3,0.3
		C21.8,20,21.4,20,20.9,19.9C20.9,20,20.9,19.9,20.9,19.9z"/>
	<path class="st4" d="M30.9,12.5c-0.3-0.2-0.7-0.4-1-0.6c0,0-0.1-0.1-0.1-0.1c0.1-0.1,0.2-0.2,0.3-0.3c0.1-0.1,0.2,0.1,0.2,0.1
		C30.5,11.9,30.8,12.2,30.9,12.5L30.9,12.5z"/>
	<path class="st5" d="M32.1,13.9c0.3,0.3,0.6,0.7,0.9,1c0.1,0.1,0.1,0.2,0,0.2c-0.1,0-0.3,0.2-0.3,0C32.4,14.7,32.2,14.3,32.1,13.9z
		"/>
	<path class="st4" d="M34.1,16.6c-0.2-0.4-0.4-0.8-0.6-1.2c-0.1-0.1-0.1-0.2,0.1-0.3c0.1-0.1,0.2,0,0.2,0.1
		C33.9,15.7,34,16.1,34.1,16.6z"/>
	<path class="st4" d="M30.9,12.5C30.9,12.5,30.9,12.5,30.9,12.5C30.9,12.6,30.9,12.6,30.9,12.5C30.9,12.5,30.9,12.5,30.9,12.5
		C30.9,12.5,30.9,12.5,30.9,12.5z"/>
	<path class="st3" d="M19.6,20.7C19.6,20.7,19.6,20.7,19.6,20.7C19.6,20.7,19.6,20.7,19.6,20.7C19.6,20.7,19.6,20.7,19.6,20.7
		C19.6,20.7,19.6,20.7,19.6,20.7z"/>
	<path class="st3" d="M19.5,20.8C19.5,20.8,19.6,20.8,19.5,20.8C19.6,20.7,19.6,20.7,19.5,20.8C19.6,20.8,19.6,20.8,19.5,20.8
		C19.6,20.8,19.5,20.8,19.5,20.8z"/>
	<path class="st0" d="M88.7,20.1c0,1.3-0.5,2.4-1.4,3.2c-1.5,1.3-3.6,1.3-5-0.2c-1.5-1.5-1.6-4.1-0.3-5.7c0.9-1.2,2.2-1.7,3.6-1.3
		c1.5,0.4,2.4,1.4,2.9,2.9C88.6,19.4,88.7,19.7,88.7,20.1z"/>
	<path class="st0" d="M58.8,20.2c0,1.5-0.6,2.7-1.9,3.5c-1.5,1-3.5,0.7-4.7-0.7c-1.5-1.7-1.3-4.6,0.4-6.1c2-1.7,5-0.8,5.9,1.8
		C58.7,19.2,58.8,19.7,58.8,20.2z"/>
	<path class="st0" d="M74.8,19.5c-1.2,0-2.3,0-3.5,0c-0.1,0-0.2,0-0.2-0.2c0.5-2.5,2.8-3.9,5-3c1.3,0.5,2.1,1.6,2.4,2.9
		c0.1,0.2,0,0.3-0.2,0.3C77.1,19.5,76,19.5,74.8,19.5z"/>
</g>
</svg>
