<?xml version="1.0" encoding="utf-8"?>
<!-- Generator: Adobe Illustrator 16.0.4, SVG Export Plug-In . SVG Version: 6.00 Build 0)  -->
<!DOCTYPE svg PUBLIC "-//W3C//DTD SVG 1.1//EN" "http://www.w3.org/Graphics/SVG/1.1/DTD/svg11.dtd">
<svg version="1.1" id="Layer_1" xmlns="http://www.w3.org/2000/svg" xmlns:xlink="http://www.w3.org/1999/xlink" x="0px" y="0px"
	 width="320px" height="64.338px" viewBox="0 0 320 64.338" enable-background="new 0 0 320 64.338" xml:space="preserve">
<g>
	<defs>
		<rect id="SVGID_1_" width="320" height="64.338"/>
	</defs>
	<clipPath id="SVGID_2_">
		<use xlink:href="#SVGID_1_"  overflow="visible"/>
	</clipPath>
	<path clip-path="url(#SVGID_2_)" d="M318.225,4.536l0.021-0.04l-0.003-0.044c-0.042-0.777-0.066-1.781-0.066-2.827V1.418
		l-0.201,0.046c-0.261,0.06-1.584,0.06-2.863,0.06h-3.955c-0.809,0-1.528-0.018-2.483-0.063l-0.042-0.002l-0.038,0.019
		c-0.178,0.087-0.207,0.339-0.212,0.415c-0.013,0.188,0.042,0.337,0.15,0.408l0.414,0.069c1.091,0.131,1.144,0.25,1.144,2.544v7.736
		c0,2.272-0.053,2.39-1.144,2.521l-0.593,0.071l-0.041,0.04c-0.122,0.121-0.142,0.321-0.118,0.467
		c0.025,0.16,0.099,0.282,0.202,0.334l0.038,0.019l0.043-0.002c1.006-0.042,1.731-0.064,2.68-0.064c0.867,0,1.612,0.023,2.854,0.064
		l0.041,0.001l0.038-0.019c0.141-0.07,0.201-0.262,0.21-0.417c0.012-0.187-0.043-0.333-0.151-0.404l-0.806-0.091
		c-1.096-0.092-1.161-0.234-1.161-2.521V9.662c0-0.415,0-0.415,0.544-0.415h1.462c0.755,0,1.316,0.017,1.604,0.1
		c0.302,0.096,0.465,0.293,0.579,0.699l0.226,0.89l0.04,0.034c0.213,0.183,0.668,0.173,0.805-0.035l0.027-0.042v-0.049
		c0-0.223-0.017-0.51-0.035-0.829c-0.023-0.39-0.05-0.831-0.05-1.256c0-0.435,0.026-0.896,0.049-1.302
		c0.02-0.334,0.036-0.636,0.036-0.869V6.54l-0.027-0.042c-0.102-0.154-0.32-0.17-0.409-0.17c-0.178,0-0.333,0.058-0.415,0.155
		l-0.227,0.929c-0.12,0.521-0.266,0.572-0.429,0.631c-0.228,0.076-0.891,0.122-1.774,0.122h-1.462c-0.544,0-0.544,0-0.544-0.415
		V3.215c0-0.695,0-0.695,0.481-0.695h1.31c0.889,0,1.59,0,2.043,0.125c0.921,0.239,1.196,0.856,1.383,1.91l0.011,0.058l0.044,0.039
		c0.083,0.071,0.198,0.11,0.325,0.11C317.943,4.762,318.146,4.692,318.225,4.536 M303.802,8.715c0-3.629-2.385-7.535-7.622-7.535
		c-4.456,0-7.816,3.332-7.816,7.751c0,3.702,2.685,7.449,7.816,7.449C300.525,16.38,303.802,13.085,303.802,8.715z M301.322,9.383
		c0,4.43-2.62,6.001-4.862,6.001c-4.435,0-5.617-4.489-5.617-7.141c0-4.479,2.679-6.067,4.972-6.067
		C299.88,2.177,301.322,6.059,301.322,9.383z M283.745,46.014c0,9.284,6.91,17.484,18.359,17.484
		c9.954,0,17.896-7.582,17.896-17.999c0-9.076-5.983-17.689-17.896-17.689C291.481,27.811,283.745,35.702,283.745,46.014z
		 M288.902,44.365c0-11.294,6.962-14.956,12.326-14.956c9.85,0,13.614,9.179,13.614,17.69c0,10.158-5.879,14.802-12.067,14.802
		C292.615,61.901,288.902,51.997,288.902,44.365z M277.508,2.287c0.109-0.095,0.168-0.25,0.155-0.415
		c-0.013-0.164-0.094-0.309-0.219-0.387L277.4,1.458l-0.053,0.003c-1.528,0.089-2.429,0.089-4.044,0l-0.044-0.002l-0.039,0.02
		c-0.12,0.06-0.202,0.181-0.227,0.332c-0.028,0.174,0.025,0.353,0.141,0.469l0.041,0.042l0.442,0.049
		c0.418,0.052,0.678,0.154,0.753,0.21c-0.067,0.307-0.819,1.702-1.275,2.548l-0.098,0.183c-0.518,1.001-1.115,2.079-1.871,3.375
		c-0.565-1.023-1.118-2.148-1.653-3.239c-0.21-0.428-0.42-0.854-0.63-1.273c-0.154-0.311-0.641-1.409-0.648-1.58
		c0-0.043,0.1-0.129,0.763-0.224l0.333-0.051l0.039-0.039c0.116-0.117,0.166-0.329,0.121-0.514
		c-0.035-0.147-0.128-0.255-0.253-0.296l-0.031-0.011l-0.033,0.003c-0.526,0.042-1.296,0.063-2.286,0.063
		c-0.994,0-1.783-0.02-2.48-0.063l-0.05-0.003l-0.043,0.024c-0.105,0.061-0.177,0.173-0.202,0.318
		c-0.029,0.172,0.016,0.353,0.117,0.471l0.038,0.044l0.66,0.117c0.569,0.096,0.854,0.144,1.578,1.545L269,8.921
		c0.607,1.169,0.67,1.412,0.67,2.589v1.096c0,2.333-0.053,2.452-1.14,2.565l-0.726,0.069l-0.042,0.042
		c-0.122,0.123-0.14,0.324-0.115,0.471c0.025,0.158,0.1,0.278,0.202,0.33l0.038,0.019l0.042-0.001
		c1.157-0.042,1.91-0.064,2.809-0.064c0.872,0,1.642,0.024,2.917,0.064l0.042,0.001l0.037-0.019
		c0.104-0.051,0.178-0.173,0.203-0.332c0.023-0.147,0.004-0.347-0.119-0.469l-0.042-0.042l-0.877-0.069
		c-0.994-0.075-1.137-0.239-1.137-2.565v-1.118c0-1.61,0.046-1.769,0.987-3.398l1.354-2.342c0.123-0.211,0.24-0.417,0.354-0.614
		c0.845-1.477,1.455-2.543,2.368-2.702l0.647-0.115L277.508,2.287z M269.978,28.584c-0.878-0.206-3.611-0.773-6.551-0.773
		c-7.788,0-12.894,2.422-16.348,6.034c-3.197,3.402-4.643,7.838-4.643,12.222c0,4.538,1.651,8.611,4.745,11.707
		c3.971,4.022,9.593,5.725,15.729,5.725c2.785,0,6.498-0.62,9.231-1.342c0.979-0.256,1.909-0.464,2.526-0.464
		c0.207-0.155,0.207-0.465,0.053-0.618c-0.928-0.361-1.238-1.599-1.238-3.662v-2.888c0-2.631,0.053-4.073,2.217-4.332l0.827-0.104
		c0.36-0.308,0.308-1.081-0.052-1.288c-1.702,0.103-3.457,0.153-5.468,0.153c-3.043,0-5.879-0.051-7.374-0.153
		c-0.361,0.153-0.413,1.083,0,1.288l2.269,0.26c3.197,0.359,3.352,0.67,3.352,5.001v2.063c0,1.65-0.257,2.579-0.515,2.939
		c-0.568,0.876-2.476,1.549-5.674,1.549c-10.366,0-15.472-7.79-15.472-17.69c0-7.736,4.385-14.853,14.389-14.853
		c5.261,0,9.128,1.754,10.573,7.323c0.31,0.31,1.238,0.259,1.393-0.154c-0.465-3.095-0.774-5.776-0.774-7.477
		C272.556,29.152,270.956,28.79,269.978,28.584z M261.186,1.195l0.016-0.06l-0.026-0.056c-0.079-0.16-0.302-0.178-0.395-0.178
		c-0.054,0-0.133,0.006-0.202,0.034l-0.054,0.021l-0.028,0.05c-0.276,0.479-0.391,0.518-1.534,0.518h-8.883
		c-0.962,0-1.393-0.05-1.482-0.531l-0.009-0.051l-0.037-0.036c-0.06-0.06-0.156-0.088-0.297-0.088c-0.051,0-0.225,0.004-0.32,0.068
		l-0.059,0.04l-0.012,0.07c-0.151,0.858-0.469,2.219-0.811,3.175l-0.023,0.066l0.031,0.063c0.131,0.259,0.57,0.385,0.807,0.208
		l0.034-0.026l0.019-0.04c0.219-0.498,0.425-0.968,0.926-1.427c0.475-0.435,1.547-0.494,2.533-0.494h1.182
		c0.479,0,0.479,0,0.479,0.522v9.607c0,2.328-0.134,2.429-1.181,2.521l-0.773,0.064l-0.072,0.023
		c-0.129,0.079-0.201,0.24-0.192,0.431c0.007,0.145,0.064,0.324,0.205,0.394l0.037,0.019l0.042-0.001
		c1.314-0.04,2.108-0.064,2.98-0.064c0.84,0,1.533,0.021,2.809,0.064l0.042,0.001l0.037-0.019c0.177-0.087,0.207-0.339,0.212-0.415
		c0.012-0.187-0.043-0.335-0.149-0.406l-0.765-0.092c-1.075-0.092-1.139-0.234-1.139-2.521V3.016c0-0.218,0-0.424,0.035-0.458
		c0.036-0.037,0.27-0.037,0.424-0.037h1.524c1.151,0,1.936,0.165,2.395,0.505c0.203,0.149,0.379,0.693,0.472,1.456l0.005,0.048
		l0.031,0.038c0.079,0.096,0.225,0.153,0.39,0.153c0.204,0,0.375-0.087,0.444-0.228l0.021-0.042l-0.005-0.048
		C260.806,3.785,260.954,2.055,261.186,1.195z M241.595,12.606v-7.65c0-2.348,0.064-2.494,1.156-2.586l0.582-0.046l0.036-0.024
		c0.106-0.071,0.161-0.22,0.149-0.407c-0.005-0.076-0.035-0.328-0.212-0.415l-0.036-0.019l-0.043,0.001
		c-1.016,0.041-1.776,0.063-2.658,0.063c-0.922,0-1.66-0.022-2.701-0.063l-0.042-0.001l-0.039,0.019
		c-0.175,0.087-0.204,0.341-0.209,0.416c-0.013,0.187,0.042,0.335,0.148,0.406l0.036,0.024l0.579,0.045
		c1.096,0.093,1.16,0.238,1.16,2.586v7.65c0,2.313-0.055,2.434-1.165,2.565l-0.595,0.071l-0.04,0.04
		c-0.122,0.123-0.14,0.322-0.117,0.469c0.025,0.159,0.1,0.28,0.202,0.332l0.038,0.019l0.043-0.001
		c1.094-0.042,1.812-0.064,2.701-0.064c0.854,0,1.565,0.021,2.658,0.064l0.043,0.001l0.037-0.019
		c0.177-0.088,0.206-0.341,0.211-0.417c0.012-0.186-0.043-0.334-0.149-0.404l-0.611-0.091
		C241.648,15.04,241.595,14.919,241.595,12.606z M238.054,61.383c-2.218-0.258-2.888-1.031-4.384-5.467l-7.065-20.731
		c-0.772-2.269-1.598-4.641-2.27-6.911c-0.103-0.36-0.464-0.463-0.772-0.463c-0.568,0.67-1.444,1.599-2.683,1.96
		c0.156,0.825-0.154,1.804-0.877,3.66l-5.259,13.925c-2.167,5.776-3.611,9.129-4.54,11.5c-0.721,1.857-1.855,2.426-3.093,2.527
		l-1.702,0.154c-0.31,0.259-0.206,1.085,0.104,1.29c1.392-0.051,3.248-0.154,4.95-0.154c2.424,0.052,4.023,0.052,5.364,0.154
		c0.464-0.205,0.464-1.031,0.103-1.29l-1.702-0.154c-1.238-0.102-1.496-0.412-1.496-1.031c0-0.567,0.361-1.959,1.135-4.281
		l1.805-5.414c0.362-1.083,0.671-1.237,1.96-1.237h7.787c1.547,0,1.754,0.154,2.116,1.288l2.268,7.015
		c0.414,1.237,0.671,2.166,0.671,2.733c0,0.516-0.722,0.826-1.804,0.928l-1.497,0.154c-0.361,0.259-0.31,1.085,0.104,1.29
		c1.496-0.051,3.455-0.154,5.931-0.154c2.32,0,4.126,0.052,6.24,0.154c0.257-0.205,0.36-1.031,0-1.29L238.054,61.383z
		 M224.748,47.356h-6.343c-1.444,0-1.495-0.052-1.083-1.236l3.249-8.975c0.567-1.547,1.082-2.785,1.236-3.043h0.104
		c0.31,0.618,0.773,2.012,1.185,3.249l2.785,8.405C226.347,47.15,226.244,47.356,224.748,47.356z M226.854,4.398
		c0-0.83,0.311-2.221,2.393-2.221c1.895,0,2.473,1.233,2.764,2.307l0.032,0.062c0.068,0.084,0.184,0.13,0.324,0.13
		c0.163,0,0.381-0.065,0.476-0.209l0.027-0.041V4.375c0-0.878-0.181-2.105-0.396-2.68l-0.04-0.107h-0.114
		c-0.151,0-0.438-0.038-0.712-0.122c-0.513-0.138-1.318-0.285-2.039-0.285c-2.721,0-4.549,1.551-4.549,3.86
		c0,1.963,1.5,3.246,2.395,3.835l2.042,1.334c1.484,0.954,1.688,1.943,1.688,2.869c0,1.147-0.78,2.305-2.522,2.305
		c-2.175,0-3.124-1.677-3.538-3.083l-0.021-0.045c-0.064-0.096-0.181-0.148-0.328-0.148c-0.143,0-0.348,0.055-0.459,0.209
		l-0.032,0.046l0.002,0.057c0.041,0.971,0.317,2.562,0.6,3.08l0.022,0.041l0.04,0.023c0.42,0.246,1.599,0.817,3.435,0.817
		c2.837,0,4.742-1.664,4.742-4.141c0-1.718-0.903-3.113-2.763-4.265l-1.721-1.075C227.949,6.495,226.854,5.631,226.854,4.398z
		 M221.44,16.13c0.099-0.078,0.149-0.205,0.13-0.332c-0.018-0.117-0.09-0.211-0.193-0.252l-0.049-0.011
		c-0.512-0.037-1.03-0.247-1.388-0.564c-1.479-1.241-2.657-3.053-4.285-5.677c-0.112-0.181-0.129-0.265-0.126-0.299
		c0.714-0.298,2.73-1.351,2.73-3.718c0-1.8-1.019-2.709-1.872-3.153c-1.077-0.585-2.458-0.664-3.666-0.664
		c-1.968,0-3.495,0.055-4.807,0.171l-0.06,0.017c-0.124,0.062-0.207,0.201-0.221,0.371c-0.015,0.185,0.054,0.361,0.176,0.449
		l0.034,0.025l0.73,0.09c0.7,0.085,0.802,0.237,0.802,2.35v7.716c0,2.272-0.054,2.39-1.145,2.521l-0.601,0.072l-0.043,0.048
		c-0.121,0.142-0.133,0.346-0.104,0.491c0.029,0.145,0.101,0.252,0.2,0.301l0.038,0.019l0.042-0.001
		c0.955-0.04,1.737-0.064,2.679-0.064c0.889,0,1.635,0.024,2.551,0.064l0.043,0.002l0.038-0.019c0.157-0.079,0.197-0.285,0.207-0.37
		c0.021-0.19-0.028-0.355-0.134-0.441l-0.036-0.03l-0.497-0.071c-1.104-0.154-1.146-0.248-1.146-2.522V9.941
		c0-0.307,0-0.307,0.844-0.307c0.826,0,1.106,0.198,1.391,0.615c0.327,0.475,0.707,1.076,1.074,1.658
		c0.385,0.607,0.747,1.182,1.033,1.587c1.477,2.103,2.59,2.777,4.583,2.777c0.415,0,0.777-0.042,0.996-0.114L221.44,16.13z
		 M214.964,8.134c-0.614,0.465-1.451,0.525-2.112,0.525c-0.971,0-1.27-0.037-1.358-0.063c-0.024-0.089-0.024-0.342-0.024-0.588
		V2.979c0-0.483,0-0.523,1.231-0.523c2.416,0,3.272,1.694,3.272,3.145C215.973,6.792,215.652,7.597,214.964,8.134z M203.858,12.982
		l0.011-0.052l-0.022-0.048c-0.093-0.207-0.32-0.299-0.506-0.299c-0.105,0-0.202,0.028-0.277,0.082l-0.052,0.061
		c-0.616,1.23-1.171,1.853-1.452,2.01c-0.462,0.231-1.112,0.305-2.677,0.305c-1.791,0-2.251-0.214-2.479-0.441
		c-0.305-0.324-0.365-1.024-0.365-2.122v-3.03c0-0.416,0-0.416,0.545-0.416h1.247c0.75,0,1.312,0.018,1.613,0.103
		c0.299,0.074,0.452,0.269,0.547,0.694l0.192,0.836l0.033,0.069c0.08,0.097,0.231,0.155,0.402,0.155
		c0.197,0,0.356-0.075,0.428-0.199l0.021-0.038v-0.044c0-0.21-0.017-0.487-0.035-0.798c-0.023-0.391-0.051-0.835-0.051-1.265
		c0-0.45,0.027-0.91,0.05-1.315c0.02-0.328,0.036-0.624,0.036-0.854V6.331l-0.021-0.038c-0.071-0.125-0.23-0.2-0.428-0.2
		c-0.172,0-0.322,0.058-0.402,0.155l-0.207,0.955c-0.097,0.491-0.218,0.564-0.405,0.626c-0.229,0.077-0.877,0.121-1.773,0.121
		h-1.247c-0.545,0-0.545,0-0.545-0.438V3.215c0-0.695,0-0.695,0.481-0.695h1.546c0.912,0,1.609,0.021,2.046,0.125
		c0.979,0.245,1.176,0.865,1.474,1.802l0.041,0.129l0.03,0.055c0.073,0.089,0.197,0.138,0.35,0.138c0.148,0,0.355-0.051,0.451-0.193
		l0.032-0.049l-0.028-0.316c-0.111-1.252-0.213-2.315-0.329-2.641l-0.051-0.141l-0.145,0.036c-0.239,0.059-1.571,0.059-2.86,0.059
		h-4.04c-0.828,0-1.537-0.018-2.527-0.063l-0.043-0.002l-0.037,0.019c-0.178,0.087-0.207,0.339-0.213,0.414
		c-0.012,0.188,0.042,0.337,0.149,0.409l0.417,0.07c1.099,0.13,1.164,0.273,1.164,2.544v7.736c0,2.328-0.134,2.429-1.183,2.521
		l-0.767,0.069l-0.043,0.042c-0.122,0.122-0.141,0.321-0.117,0.468c0.025,0.159,0.1,0.281,0.202,0.333l0.038,0.019l0.042-0.001
		c1.241-0.041,1.989-0.064,2.917-0.064h1.934c1.875,0,3.758,0.021,5.756,0.064l0.106,0.002l0.047-0.096
		C203.168,15.404,203.708,13.736,203.858,12.982z M189.117,2.279c0.115-0.117,0.136-0.321,0.116-0.46
		c-0.021-0.157-0.09-0.276-0.195-0.336l-0.043-0.024l-0.049,0.003c-0.721,0.043-1.38,0.063-2.075,0.063
		c-0.845,0-1.655-0.023-2.223-0.063l-0.051-0.003l-0.044,0.025c-0.118,0.068-0.199,0.21-0.215,0.381
		c-0.018,0.171,0.038,0.33,0.146,0.424l0.039,0.034l0.437,0.048c0.752,0.085,0.821,0.243,0.821,0.243
		c0,0.141-0.021,0.356-0.182,0.779c-0.37,0.936-1.395,3.396-1.996,4.809c-0.159,0.366-0.359,0.842-0.582,1.368
		c-0.407,0.966-0.902,2.142-1.324,3.065c-1.017-2.336-1.954-4.68-2.903-7.075c-0.629-1.543-0.99-2.665-1.058-2.944
		c0.033-0.068,0.219-0.161,0.862-0.246l0.37-0.049l0.037-0.032c0.109-0.094,0.165-0.252,0.148-0.424
		c-0.016-0.17-0.097-0.313-0.216-0.381l-0.041-0.024L178.85,1.46c-0.956,0.045-1.708,0.063-2.593,0.063
		c-0.897,0-1.583-0.019-2.224-0.063l-0.054-0.003l-0.045,0.029c-0.125,0.078-0.207,0.223-0.22,0.387
		c-0.014,0.165,0.045,0.319,0.154,0.415l0.04,0.034l0.438,0.048c0.836,0.097,1.121,0.48,1.606,1.661l3.782,9.324
		c0.45,1.117,0.78,2.072,0.981,2.838l0.021,0.08l0.076,0.031c0.125,0.051,0.255,0.076,0.385,0.076c0.124,0,0.24-0.033,0.329-0.092
		l0.049-0.032l0.017-0.055c0.369-1.154,1.4-3.687,2.229-5.592l1.16-2.643c0.996-2.259,1.825-3.962,2.396-4.923
		c0.273-0.442,0.561-0.637,0.987-0.673l0.708-0.047L189.117,2.279z M175.086,32.194c-3.92,3.043-6.499,7.943-6.499,13.667
		c0,6.652,3.198,11.346,7.323,14.183c3.766,2.526,8.2,3.455,12.843,3.455c3.3,0,7.015-0.773,8.147-1.187
		c0.567-0.206,1.187-0.411,1.806-0.516c0.773-0.98,2.114-4.384,2.476-7.065c-0.206-0.36-0.98-0.464-1.341-0.206
		c-1.187,3.042-4.127,7.376-10.779,7.376c-8.457,0-15.317-5.984-15.317-16.813c0-10.676,6.706-15.678,14.596-15.678
		c7.479,0,9.799,4.022,10.572,7.53c0.36,0.309,1.135,0.258,1.392-0.103c-0.411-3.146-0.669-6.395-0.722-7.582
		c-0.465,0.051-0.824-0.052-1.443-0.206c-2.425-0.67-6.344-1.237-9.129-1.237C183.646,27.812,178.851,29.255,175.086,32.194z
		 M168.492,12.606v-7.65c0-2.325,0.076-2.495,1.159-2.586l0.58-0.046l0.035-0.024c0.108-0.071,0.162-0.22,0.15-0.409
		c-0.005-0.075-0.035-0.327-0.212-0.414l-0.037-0.018l-0.042,0.001c-1.016,0.041-1.775,0.063-2.658,0.063
		c-0.924,0-1.661-0.022-2.7-0.063l-0.042-0.001l-0.038,0.018c-0.177,0.087-0.207,0.34-0.212,0.416
		c-0.012,0.188,0.043,0.336,0.15,0.408l0.036,0.024l0.578,0.045c1.085,0.092,1.16,0.261,1.16,2.586v7.65
		c0,2.313-0.055,2.434-1.165,2.565l-0.594,0.071l-0.04,0.04c-0.123,0.123-0.142,0.323-0.118,0.47
		c0.026,0.159,0.101,0.279,0.204,0.331l0.037,0.019l0.043-0.001c1.092-0.042,1.809-0.064,2.7-0.064c0.851,0,1.59,0.022,2.658,0.064
		l0.042,0.001l0.037-0.019c0.178-0.087,0.207-0.34,0.212-0.416c0.012-0.187-0.043-0.335-0.15-0.406l-0.608-0.091
		C168.547,15.04,168.492,14.919,168.492,12.606z M157.706,54.834v-18.36c0-5.466,0.103-6.343,3.146-6.6l1.29-0.103
		c0.309-0.208,0.205-1.135-0.104-1.289c-2.579,0.103-4.332,0.154-6.395,0.154c-2.166,0-3.919-0.051-6.498-0.154
		c-0.309,0.154-0.413,1.081-0.103,1.289l1.29,0.103c3.042,0.257,3.146,1.134,3.146,6.6v18.36c0,5.467-0.103,6.188-3.146,6.549
		l-1.29,0.154c-0.31,0.31-0.206,1.136,0.103,1.29c2.579-0.103,4.332-0.154,6.498-0.154c2.063,0,3.816,0.052,6.395,0.154
		c0.309-0.154,0.412-1.083,0.104-1.29l-1.29-0.154C157.809,61.023,157.706,60.301,157.706,54.834z M160.365,2.279
		c0.104-0.104,0.155-0.272,0.137-0.439c-0.018-0.153-0.094-0.282-0.208-0.354l-0.045-0.028l-0.053,0.003
		c-0.706,0.041-1.266,0.063-2.205,0.063c-0.758,0-1.467-0.018-2.528-0.063l-0.034-0.001l-0.031,0.012
		c-0.125,0.046-0.212,0.164-0.242,0.322c-0.035,0.192,0.023,0.386,0.148,0.495l0.038,0.033l0.415,0.048
		c0.738,0.092,1.112,0.202,1.213,0.354c0.256,0.406,0.404,1.995,0.404,4.359v4.599c0,0.208,0,0.449-0.013,0.614
		c-0.745-0.77-1.525-1.643-2.494-2.728l-2.989-3.354c-2.126-2.385-3.343-3.948-3.618-4.648l-0.048-0.123l-0.131,0.02
		c-0.257,0.039-0.609,0.062-0.964,0.062c-0.375,0-1.519,0-2.415-0.063l-0.045-0.003l-0.041,0.021
		c-0.114,0.058-0.193,0.176-0.218,0.324c-0.029,0.179,0.022,0.366,0.131,0.476l0.041,0.042l0.421,0.049
		c0.573,0.071,1,0.233,1.23,0.464c0.401,0.438,0.43,0.835,0.43,1.435v6.406c0.001,1.039,0.004,3.472-0.265,4.164
		c-0.05,0.11-0.233,0.257-0.813,0.334l-0.638,0.07l-0.041,0.041c-0.095,0.095-0.145,0.248-0.131,0.41
		c0.014,0.162,0.085,0.299,0.195,0.377l0.047,0.034l0.058-0.003c0.747-0.042,1.324-0.064,2.226-0.064
		c0.727,0,1.454,0.019,2.507,0.064l0.057,0.002l0.046-0.033c0.101-0.072,0.168-0.186,0.19-0.322c0.024-0.158-0.016-0.32-0.11-0.447
		l-0.043-0.059l-0.743-0.071c-0.516-0.042-0.875-0.163-0.965-0.326c-0.231-0.409-0.364-2-0.364-4.367V5.793
		c0-0.385,0.007-0.794,0.044-1.086c0.342,0.382,0.911,1.054,1.422,1.659c0.351,0.416,0.676,0.8,0.886,1.041l4.985,5.672
		c1.657,1.885,2.45,2.821,2.74,3.231l0.049,0.07h0.085c0.282,0,0.493-0.131,0.565-0.35l0.011-0.034l-0.004-0.036
		c-0.029-0.25-0.063-1.102-0.063-3.74l0-5.428c-0.004-1.101-0.011-3.392,0.305-4.062c0.027-0.054,0.285-0.237,1.08-0.362l0.355-0.05
		L160.365,2.279z M141.102,2.247c0.095-0.115,0.14-0.292,0.114-0.452c-0.022-0.134-0.092-0.244-0.197-0.31l-0.044-0.027
		l-0.052,0.003c-0.747,0.041-1.327,0.063-2.247,0.063c-0.824,0-1.623-0.021-2.441-0.063l-0.055-0.003l-0.046,0.031
		c-0.099,0.066-0.167,0.188-0.188,0.334c-0.022,0.161,0.018,0.316,0.111,0.425l0.045,0.053l0.605,0.046
		c0.493,0.041,0.829,0.172,0.944,0.37c0.25,0.441,0.388,1.992,0.388,4.366v2.473c0,2.532-0.717,5.55-4.133,5.55
		c-2.864,0-4.198-1.771-4.198-5.572V4.892c0-2.285,0.075-2.452,1.138-2.544l0.559-0.044l0.035-0.024
		c0.107-0.072,0.162-0.216,0.149-0.397c-0.009-0.15-0.07-0.335-0.21-0.404l-0.038-0.018l-0.042,0.001
		c-1.019,0.041-1.741,0.063-2.636,0.063c-0.882,0-1.642-0.023-2.657-0.063l-0.042-0.001l-0.038,0.018
		c-0.141,0.069-0.202,0.253-0.212,0.402c-0.013,0.182,0.042,0.327,0.149,0.399l0.036,0.024l0.58,0.044
		c1.063,0.093,1.138,0.259,1.138,2.544v5.071c0,2.598,0.535,4.202,1.733,5.198c0.946,0.81,2.335,1.22,4.126,1.22
		c1.693,0,3.312-0.622,4.224-1.622c1.042-1.116,1.549-2.832,1.549-5.247V7.083c0-1.089,0-3.641,0.286-4.315
		c0.1-0.217,0.468-0.382,0.937-0.42l0.586-0.046L141.102,2.247z M116.398,29.771c0.309-0.208,0.206-1.135-0.104-1.289
		c-2.218,0.103-3.971,0.154-5.981,0.154c-2.218,0-3.972-0.103-6.499-0.154c-0.31,0.154-0.413,1.081-0.103,1.289l1.34,0.103
		c2.682,0.206,3.043,1.083,3.043,6.498v18.566c0,5.414-0.104,5.931-2.991,6.445l-0.876,0.154c-0.31,0.31-0.207,1.136,0.103,1.29
		c2.012-0.051,3.765-0.154,5.983-0.154c2.011,0,3.764,0.052,6.549,0.154c0.31-0.154,0.413-1.083,0.103-1.29l-1.495-0.154
		c-2.888-0.309-3.146-1.031-3.146-6.445v-7.272c0-1.546,0.103-1.65,2.579-1.65h14.75c2.476,0,2.579,0.104,2.579,1.65v7.272
		c0,5.414,0,5.931-3.146,6.445l-0.98,0.154c-0.309,0.31-0.206,1.136,0.104,1.29c2.269-0.103,4.126-0.154,6.24-0.154
		c2.012,0,3.765,0.052,6.24,0.154c0.309-0.154,0.413-1.083,0.104-1.29l-1.238-0.154c-2.991-0.36-3.094-1.031-3.094-6.445V36.372
		c0-5.415,0.103-6.189,3.094-6.498l1.083-0.103c0.31-0.208,0.207-1.135-0.103-1.289c-2.32,0.103-4.074,0.154-6.085,0.154
		c-2.114,0-3.868-0.051-6.24-0.154c-0.31,0.154-0.413,1.081-0.104,1.289l0.98,0.103c3.043,0.308,3.146,1.083,3.146,6.498v5.931
		c0,1.6-0.103,1.65-2.579,1.65h-14.75c-2.476,0-2.579-0.051-2.579-1.65v-5.931c0-5.415,0.103-6.189,3.094-6.498L116.398,29.771z
		 M114.318,12.982l0.011-0.052l-0.022-0.048c-0.092-0.207-0.321-0.299-0.506-0.299c-0.106,0-0.202,0.028-0.277,0.082l-0.052,0.061
		c-0.616,1.231-1.171,1.854-1.452,2.01c-0.462,0.231-1.113,0.305-2.677,0.305c-1.79,0-2.251-0.214-2.479-0.441
		c-0.304-0.325-0.363-1.024-0.363-2.122v-3.03c0-0.416,0-0.416,0.544-0.416h1.247c0.75,0,1.311,0.018,1.614,0.103
		c0.299,0.074,0.452,0.269,0.545,0.694l0.193,0.836l0.034,0.068c0.08,0.097,0.231,0.156,0.402,0.156
		c0.196,0,0.356-0.075,0.427-0.199l0.022-0.038v-0.044c0-0.21-0.017-0.487-0.036-0.798c-0.023-0.391-0.051-0.835-0.051-1.265
		c0-0.45,0.027-0.91,0.05-1.315c0.02-0.328,0.037-0.624,0.037-0.854V6.331l-0.021-0.038c-0.072-0.125-0.231-0.2-0.428-0.2
		c-0.171,0-0.322,0.058-0.402,0.156l-0.207,0.954c-0.097,0.491-0.218,0.564-0.406,0.626c-0.229,0.077-0.876,0.121-1.773,0.121
		h-1.247c-0.544,0-0.544,0-0.544-0.438V3.215c0-0.695,0-0.695,0.479-0.695h1.547c0.913,0,1.61,0.021,2.044,0.125
		c0.98,0.245,1.177,0.865,1.475,1.803l0.042,0.128l0.029,0.055c0.073,0.089,0.198,0.138,0.35,0.138c0.148,0,0.355-0.051,0.451-0.193
		l0.032-0.048l-0.028-0.317c-0.112-1.251-0.213-2.314-0.329-2.64l-0.05-0.141l-0.145,0.036c-0.239,0.059-1.572,0.059-2.861,0.059
		h-4.041c-0.827,0-1.536-0.018-2.526-0.063l-0.042-0.002l-0.038,0.019c-0.177,0.087-0.207,0.339-0.212,0.414
		c-0.013,0.188,0.042,0.337,0.149,0.409l0.417,0.07c1.1,0.13,1.166,0.273,1.166,2.544v7.736c0,2.328-0.134,2.429-1.183,2.521
		l-0.768,0.069l-0.042,0.042c-0.123,0.123-0.141,0.323-0.118,0.469c0.025,0.159,0.1,0.28,0.203,0.332l0.037,0.019l0.042-0.001
		c1.242-0.041,1.989-0.064,2.916-0.064h1.935c1.874,0,3.757,0.021,5.755,0.064l0.106,0.002l0.046-0.096
		C113.627,15.407,114.167,13.739,114.318,12.982z M96.358,12.65V4.914c0-2.289,0.064-2.432,1.14-2.544l0.449-0.042L98.024,2.3
		c0.107-0.071,0.162-0.219,0.151-0.406c-0.005-0.076-0.034-0.329-0.21-0.417l-0.038-0.019L97.884,1.46
		c-1.039,0.046-1.748,0.063-2.53,0.063c-0.931,0-1.682-0.024-2.592-0.063L92.72,1.458l-0.038,0.019
		c-0.177,0.087-0.207,0.339-0.212,0.415C92.458,2.08,92.513,2.228,92.62,2.3l0.483,0.07c1.098,0.113,1.163,0.255,1.163,2.544v2.47
		c0,0.523,0,0.523-0.909,0.523H87.21c-0.909,0-0.909,0-0.909-0.523v-2.47c0-2.289,0.064-2.431,1.142-2.544l0.408-0.042L87.926,2.3
		c0.107-0.071,0.162-0.22,0.149-0.408c-0.005-0.076-0.035-0.328-0.211-0.415l-0.038-0.019L87.783,1.46
		c-0.978,0.045-1.699,0.063-2.485,0.063c-0.561,0-1.05-0.016-1.585-0.033c-0.344-0.011-0.707-0.022-1.118-0.031l-0.04-0.001
		l-0.036,0.018c-0.176,0.087-0.207,0.338-0.212,0.413c-0.013,0.188,0.041,0.338,0.149,0.41l0.036,0.024l0.602,0.046
		c0.947,0.072,1.115,0.268,1.115,2.543v7.736c0,2.237-0.042,2.331-1.11,2.523l-0.416,0.073l-0.037,0.037
		c-0.124,0.123-0.142,0.323-0.118,0.47c0.025,0.159,0.099,0.28,0.203,0.331l0.037,0.018l0.042-0.001
		c0.295-0.007,0.577-0.017,0.859-0.027c0.508-0.019,1.033-0.037,1.629-0.037c0.808,0,1.493,0.02,2.725,0.064l0.042,0.001
		l0.038-0.019c0.141-0.07,0.201-0.262,0.21-0.418c0.011-0.186-0.044-0.333-0.152-0.403l-0.696-0.091
		c-1.03-0.111-1.163-0.214-1.163-2.521V9.619c0-0.521,0-0.521,0.909-0.521h6.146c0.909,0,0.909,0,0.909,0.521v3.031
		c0,2.286-0.022,2.333-1.171,2.522l-0.462,0.072l-0.038,0.038c-0.123,0.123-0.141,0.324-0.116,0.471
		c0.026,0.158,0.1,0.278,0.203,0.33l0.038,0.019l0.042-0.002c1.029-0.045,1.78-0.064,2.592-0.064c0.847,0,1.593,0.023,2.594,0.064
		l0.042,0.001l0.038-0.019c0.177-0.087,0.208-0.339,0.212-0.414c0.013-0.187-0.042-0.336-0.149-0.407l-0.587-0.091
		C96.412,15.04,96.358,14.922,96.358,12.65z M78.69,1.195l0.016-0.061l-0.028-0.057c-0.083-0.163-0.323-0.176-0.394-0.176
		c-0.054,0-0.133,0.006-0.202,0.034l-0.053,0.022L78,1.006c-0.277,0.479-0.391,0.518-1.533,0.518h-8.883
		c-0.962,0-1.393-0.05-1.483-0.531l-0.01-0.051l-0.037-0.036c-0.06-0.061-0.157-0.089-0.296-0.089c-0.051,0-0.226,0.005-0.32,0.068
		l-0.059,0.04l-0.012,0.069c-0.15,0.855-0.468,2.214-0.81,3.175l-0.024,0.066L64.565,4.3c0.129,0.259,0.57,0.384,0.806,0.208
		l0.035-0.026l0.017-0.04c0.218-0.496,0.424-0.965,0.927-1.428c0.473-0.435,1.545-0.494,2.532-0.494h1.182c0.48,0,0.48,0,0.48,0.522
		v9.607c0,2.328-0.134,2.429-1.181,2.521l-0.773,0.064l-0.073,0.023c-0.128,0.079-0.2,0.239-0.191,0.429
		c0.006,0.145,0.063,0.325,0.204,0.396l0.037,0.019l0.042-0.001c1.316-0.04,2.11-0.064,2.981-0.064c0.839,0,1.533,0.021,2.811,0.064
		l0.042,0.001l0.037-0.019c0.141-0.07,0.201-0.262,0.21-0.417c0.011-0.186-0.044-0.333-0.151-0.404l-0.764-0.091
		c-1.075-0.092-1.139-0.234-1.139-2.521V3.02c0-0.22,0-0.427,0.035-0.462c0.037-0.037,0.269-0.037,0.424-0.037h1.525
		c1.151,0,1.935,0.165,2.395,0.505c0.204,0.149,0.379,0.693,0.471,1.455l0.006,0.048l0.031,0.037
		c0.079,0.096,0.225,0.153,0.39,0.153c0.204,0,0.374-0.087,0.444-0.229l0.021-0.042l-0.005-0.048
		C78.31,3.783,78.459,2.052,78.69,1.195z M64.053,45.861c0,6.652,3.198,11.346,7.323,14.183c3.765,2.526,8.2,3.455,12.841,3.455
		c3.301,0,7.014-0.773,8.148-1.187c0.568-0.206,1.187-0.411,1.805-0.516c0.774-0.98,2.115-4.384,2.476-7.065
		c-0.207-0.36-0.98-0.464-1.341-0.206c-1.187,3.042-4.126,7.376-10.779,7.376c-8.458,0-15.317-5.984-15.317-16.813
		c0-10.676,6.705-15.678,14.595-15.678c7.478,0,9.799,4.022,10.572,7.53c0.361,0.309,1.135,0.258,1.392-0.103
		c-0.412-3.146-0.67-6.395-0.722-7.582c-0.464,0.051-0.825-0.052-1.443-0.206c-2.424-0.67-6.344-1.237-9.129-1.237
		c-5.363,0-10.159,1.443-13.924,4.382C66.631,35.237,64.053,40.137,64.053,45.861z M50.642,37.16L50.64,1.237
		C21.782-1.546,0,1.237,0,1.237s0,35.92,0,35.928c2.3,24.352,25.107,27.212,25.324,27.173C29.397,63.602,48.518,59.757,50.642,37.16
		z M8.131,46.125c0.461,0.312,1.004,0.451,1.501,0.663c0.616,1.612,0.015,3.197-0.331,2.54C8.695,48.176,8.456,47.219,8.131,46.125z
		 M8.16,28.468l-0.038-0.037c-0.045,0-3.206,1.994-5.259,1.037c1.529-0.846,6.828-4.213,8.277-5.168
		c0.684,0.147,0.96-0.1,1.179-0.251c-0.554,0.034-2.389,0.321-1.461-1.322c0.357,1.472,2.931,0.118,3.855-0.095
		c2.576-0.593,2.557,2.161,2.337,3.298c-0.083,0.424,0.789,0.725,1.218,0.664c-0.738,1.819-1.999,0.104-2.148,0.797
		c-0.061,0.282-0.905,0.502-0.901,1.2c0.005,0.955,0.378,0.434,0.413,1.173c0.038,0.717-0.306,0.159-0.228,0.935
		c0.124,1.231,2.16-0.164,3.001,0.169c0.421,0.166,0.7,0.543,1.11,0.469c0.12-0.099,0.066-0.564,0.047-0.73
		c-0.043-0.391-0.766-0.437-1.103-0.971c-0.293-0.465,0.333-1.866,0.671-2.278c0.486,2.312,2.653,1.587,2.977,4.019
		c0.205,0.688-0.744,1.452,0.025,2.571c-0.572,0.555-1.259,3.188-0.062,4.424c-0.203,0.56-0.469,1.853,0.595,2.606
		c-0.358,0.763-0.276,1.695,0.026,2.644c-0.663,0.003-0.531-3.719-4.505-3.837c-0.089-0.028-0.11,0.422,0.004,0.623
		c0.477,0.837,1.116,0.788,0.979,2.756c-0.047,0.675-0.442-0.116-0.653-0.303c-0.481-0.425-0.854-0.481-1.062-1.867
		c-1.615,1.266-1.457,2.799-1.355,3.577c0.001,0.002-0.356-0.971-0.764-1.969c-0.021-0.053,1.64-2.052,1.905-2.527
		c3.353-6.035-2.166,1.951-2.177,1.924c-0.297-0.688-0.556-1.28-0.731-1.469c0.043-0.083,0.963-1.11,1.379-1.977
		c2.594-5.399-1.541,1.799-1.689,1.666c-0.312-0.28-0.57-0.633-0.768-0.507c-0.046,0.83-0.245,0.717-0.188,1.563
		c-0.432,0.577-1.36,1.484-2.008,1.933c0,0-0.162-1.498-0.119-1.551c0.326-0.397,1.601-1.764,1.862-2.173
		c4.25-6.675-1.99,1.607-2.001,1.537c-0.044-0.265-0.386-0.7-0.75-1.072c0,0,1.378-1.877,1.717-2.575
		c2.586-5.316-2.078,2.356-2.13,2.328c-0.112-0.059-0.124-0.057-0.253-0.102c-0.13-0.044,0.143-1.531,0.323-2.427
		c0.35-1.771-0.589-0.344-0.845,2.463c-0.239,0.038-0.821,0.099-1.042,0.299c0.142,0.749,0.319,0.173,0.634,0.893
		c0.375,0.862-0.524,2.275,0.259,3.312c0.302,0.398,0.32,0.332,0.26,0.594c-0.481-0.034-0.773-0.044-1.078,0.372
		c-0.592-2.688-0.573-3.982-0.435-6.715c0.062-1.243,0.47-3.122,0.284-3.157c-0.178-0.034-2.993,7.217-3.672,8.638
		c-1.188-0.4,0.739-6.676,3.187-9.697c0.231-0.961-1.283,0.975-2.188,1.745c-0.829,0.707-1.879,1.629-3.022,1.312
		c1.468-1.553,4.835-4.459,5.21-5.185c0.314-0.622-2.297,1.938-5.056,0.986C3.987,32.078,8.152,29.951,8.16,28.468z M13.126,42.108
		c0.011,0.661-0.037,1.15,0.156,1.823c0.312,1.014,0.156,0.701-0.27,0.353c-0.339-0.376-0.655-0.686-0.818-1.126
		C12.154,42.845,12.406,42.828,13.126,42.108z M19.793,25.767c-0.402-0.687,0.48-1.341,0.48-1.341
		c-0.027,1.929,2.44,0.605,3.728,1.218c0.309,0.143,0.526,0.415,0.654,0.702C23.271,25.388,20.711,27.333,19.793,25.767z
		 M5.285,10.353c-2.202,0-2.155-3.302,0-3.302C7.451,7.051,7.451,10.353,5.285,10.353z M5.285,16.945c-2.252,0-2.252-3.299,0-3.299
		C7.451,13.646,7.464,16.945,5.285,16.945z M7.543,7.935h1.919v1.888H7.543V7.935z M7.543,14.512h1.919V16.4H7.543V14.512z
		 M24.969,19.652c0,0-2.008-1.089-4.367-1.247c-2.279-0.151-6.886,1.67-10.422,1.429V4.295c0,0,4.033,0.536,5.689-0.104
		c5.633-2.172,9.1,0.255,9.1,0.255V19.652z M28.86,22.175c0.099,0.587-0.446,0.734-0.444,0.733c0.846,0.198,1.25-0.306,1.415-0.624
		c0.325,1.351-1.037,1.427-1.461,1.508c-0.001,0,0.689,0.199,0.726,0.648c0.09,1.143,0.825,1.044,0.983,0.955
		c-0.026,0.138-0.252,0.827-1.078,0.205c-0.14,0.138,0.225,0.352,0.297,0.918c0.093,0.717,0.07,1.382,0.898,1.819
		c-0.507,0.403-1.105-0.648-1.158-0.522c-0.059,0.141,0.706,0.527-0.135,2.509c-0.384-0.22-0.17-0.178-0.615-0.707
		c-0.34-0.286-0.474-0.35-0.19,0.12c0.497,0.62,0.613,2.038,0.442,2.42c-0.409-0.178-0.304-0.504-0.787-0.949
		c-0.044,0.189,0.148,1.129,0.647,1.579c0.861,0.777,1.166,1.717,1.182,1.902c0.068,0.707-0.154,1.638-0.238,2.548
		c-0.413-0.06-0.765-1.232-0.864-1.167c-0.123,0.08,0.052,1.148,0.831,1.877c0.377,1.102,0.225,1.694,0.125,1.733
		c-0.133,0.057-0.553-1.127-0.781-0.921c1.109,2.822,0.333,3.805,0.04,4.675c-0.229-0.892-0.345-1.559-0.632-2.568
		c-0.604,0.475-0.75,1.179-1.489,1.822c0-1.151-0.665-3.929-1.192-4.576c-0.025-0.03-0.954,2.49-1.377,3.611
		c-0.549,1.452-0.634,3.269,0,4.684c-1.369-1.947-1.516-5.573-0.334-6.062c0.103-0.26-0.072-1.112-0.335-1.007
		c-0.075,0.417-0.025,0.773-0.371,1.182c-0.907-0.267-0.494-1.373-0.412-1.739c1.176-1.411,0.441-1.738,0.386-1.7
		c-0.127,0.323-0.238,0.719-0.598,0.866c-0.754-1.297-0.271-3.332,1.163-4.854c0.061-0.568-0.641,0.423-1.098,0.388
		c-0.12-1.094,0.277-2.992,2.301-3.062c-0.387-0.113-0.594-0.184-0.687-0.506c0.612-0.09,2.531-0.237,2.214-1.75
		c-0.182,0.182-0.24,0.454-0.74,0.758c-0.336,0.205-0.702,0.222-0.893-0.074c0.89-0.294,0.596-1.377-0.566-1.059
		c-0.356,0.097-0.877-0.275-0.902-0.687c0.259,0.259,0.783,0.067,1.085-0.13c1.308-0.85,2.106,0.381,2.282,0.646
		c0.053,0,0.587-1.23-1.27-1.561c-0.155-0.432-0.58-1.196-1.839-1.101c-0.416-1.465-1.672-0.742-1.63-0.079
		c-1.335-0.983,0.023-2.224,0.562-2.415c0.374,0.031,0.291,1.214,0.947,1.015c0.159-0.047-0.51-0.815-0.254-1.163
		c0.603-0.344,0.589,0.44,0.886,0.148c0.147-0.513,0.738-0.801,1.224-0.856C26.491,21.413,27.552,22.908,28.86,22.175z
		 M41.137,19.891c-2.963,0.202-9.11-1.485-10.673-1.485c-3.225,0-4.784,1.259-4.784,1.259s0.004-14.638,0-15.165
		c0,0,4.237-1.987,7.32-0.849c3.775,1.393,8.138,0.776,8.138,0.776V19.891z M45.039,13.91c1.633-0.238,1.879,1.689,1.879,1.689
		h-0.003c-0.402-0.32-1.21-0.464-1.758-0.111c-1.824,1.175-3.469,1.188-3.469,1.188v-2.944
		C41.688,13.732,42.036,14.349,45.039,13.91z M46.972,9.88c-0.012-0.087-0.03-0.221-0.057-0.41
		c-0.041-0.294-0.886-0.465-1.482-0.204c-0.836,0.365-2.928,1.56-3.691,1.334V7.657c1.883,0.817,2.619,0.079,3.224,0.079
		c1.86,0,1.953,1.734,1.953,1.734C46.942,9.659,46.96,9.793,46.972,9.88z M44.868,40.389c-0.55,0.144-2.002,0.723-2.352,1.293
		c0.186-3.138-0.827-6.219-1.15-6.963c-0.629-1.45,0.281,3.374,0.343,4.485c0.002,0.05-5.207-6.693-2.062-1.501
		c0.814,1.346,2.087,2.226,2.088,2.247c0.021,0.937-0.042,1.625-0.22,2.128c-0.32,0.256-7.091-9.011-3.349-2.593
		c0.464,0.796,3.179,3.204,3.157,3.253c-0.171,0.365-0.477,0.897-0.898,1.29c-0.071-0.071-1.562-1.171-1.572-1.237
		c-0.112-0.716-0.117-1.394-1.002-0.886c0,0-3.336-3.884-1.791-1.162c0.675,1.19,1.118,1.321,1.298,1.533
		c0,0-0.518,0.702-0.684,1.447c-0.067,0.298-2.893-3.133-1.784-0.978c0.355,0.69,1.647,1.444,1.633,1.493
		c-0.133,0.449-0.267,0.884-0.408,1.167c-0.178,0.357-2.659,2.335-2.655,2.334c0-0.001,0.485-1.567,1.54-2.334
		c0.603-0.44,0.604-0.345,1.003-0.595c-0.008-0.231-0.231-0.609-0.521-0.709c-0.362-0.129-1.536,0.085-1.536,0.085
		c0.11-0.587-0.404-1.854-0.397-3.247c-0.442,0.044-1.218,0.729-1.405,1.116c-0.136,2.308-0.637,1.616-1.106,3.276
		c-0.51-0.695,0.036-1.696-0.464-2.348c-0.688-0.896-0.792-1.501-0.894-2.604c0.161-0.089,0.863-0.864,0.224-2.492
		c-0.104-2.557,1.038-3.533-1.005-5.322c0.172-0.056,0.295-1.337,0.295-1.339c1.505,0.803,1.207-0.929,1.793-1.269
		c0.931-0.541,0.763-1.101,0.344-1.798c2.662,0.757-0.12,2.577,1.084,2.616c0.874,0.026,1.46-0.195,1.839-0.783
		c0.404-0.621-0.07-1.002,1.06-2.009c0.113-0.101,0.412-0.773-0.483-0.958c-0.196-0.042,0.002-0.807,0.002-0.807
		c-0.717,0.606-0.943,1.461-2.095,0.921c-0.59-0.278-0.974-0.005-1.214,0.111c0,0-0.123-0.482,0.365-0.645
		c1.262-0.424,1.574-0.928,1.505-1.203c-0.17-0.656-0.222,0-0.185-0.69c0.016-0.274,0.334-0.647,0.599-0.966
		c0.856-1.032,1.461-0.645,1.68-0.554c0.498-0.385,0.585-0.357,1.048-0.541c0.792-0.311,2.509,0.207,3.468,0.651
		c0.465,0.21,1.021,0.337,1.564,0.217c-0.005,0.28-0.202,0.431-0.396,0.487c-0.299,0.094-0.657,0-0.633,0.219
		c0.014,0.128,0.424,0.15,0.681,0.22c1.421,0.389,3.262,1.663,2.054,1.394c-0.143-0.032,0.872,0.758,1.637,1.785l2.711,2.634
		c-0.125,0.149-1.076,0.014-4.086-2.808c-0.428,0.382,3.663,3.464,5.351,6.737c-0.146,0.102-2.25-0.665-3.009-1.446
		c-1.168-1.21-2.512-4.285-3.064-3.835c-0.066,0.026,2.223,3.59,3.354,5.704c0.571,1.069,1.041,2.602,1.08,3.757
		c0.181,5.694-0.676,5.257-0.676,5.258c-1.333-4.489-1.958-9.699-3.904-12.104C41.888,30.566,44.745,35.732,44.868,40.389z
		 M38.97,45.508c-0.602,0.528-0.995,0.717-0.863,0.454c0.146-0.292,0.254-0.54,0.336-0.759C38.471,45.131,38.97,45.508,38.97,45.508
		z M38.575,44.802c0.133-0.479,0.134-0.809,0.196-1.23c0.027-0.181,0.031-0.159,0.04-0.312c0.003-0.051,1.305,1.083,1.377,1.13
		c-0.327,0.408-0.606,0.555-0.917,0.846C39.049,45.044,38.562,44.848,38.575,44.802z M42.801,46.25
		c-1.808,1.786-4.518,1.139-6.654,2.095c-1.936,0.706-3.338,2.496-5.368,2.948c-0.597,0.192-0.695,0.491-0.314,0.481
		c0.223-0.007,1.46,1.284,3.439,0.289c0.661-0.333,2.715-1.477,3.062-1.542c-1.111,1.059-1.669,2.004-2.663,2.563
		c-0.608,0.34-3.084,1.228-5.554,0.747c-1.094-0.213-1.937,0.797-1.658,0.773c0.586-0.156,1.242-0.076,1.637,0.44
		c0.717,0.562,1.756,1.262,2.649,0.219c0.297-0.346,1.715-1.082,3.047,0.271c-1.417-0.074-1.277,2.475-3.963,2.176
		c-0.994-0.007-3.191-2.281-3.816-1.578c-1.11,1.247,2.385,2.432,0.872,4c-1.367,1.417-3-1.128-3-1.128
		c0.853,0.357,2.427,0.588,1.734-0.799c-0.275-0.551-0.798-1.046-0.798-2.064c-0.12-0.507-3.249,4.029-5.318,1.98
		c-0.813-0.806-2.46-2.571-3.952-3.243c3.951-0.337,4.553,1.244,4.742,1.499c1.263,1.704,2.431-0.027,2.7-0.33
		c0.412-0.47,0.994-1.114,0.787-1.212c-1.532-0.727-3.283-0.881-4.59-0.281c2.8-3.848,4.979-0.244,4.978-0.245
		c0.306,0.19-0.079-2.282-2.848-2.419c-1.729-0.085-3.251,1.472-4.444,1.47c-0.97-0.001-3.91-1.987-4.601-3.75
		c1.71,1.279,3.893,2.014,5.253,1.203c2.557-1.524,5.777,0.773,5.931,0.499c-0.715-0.559-2.342-2.739-6.732-1.496
		c-1.703,0.978-2.421-0.726-3.467-0.755c1.779-1.579,3.013-0.775,3.635-0.728c0.147,0-0.742-0.731-1.366-0.798
		c-4.852-0.504-7.925-1.839-7.925-1.839c-0.025,0,0.404-0.978,2.49-0.272c0,0-1.87-1.145-1.854-2.616
		c0.061-0.907,0.5-1.878-0.194-2.634c2.816-0.116,0.815,3.811,2.793,4.822c0.042,0.017-0.583-0.938,0.297-1.678
		c0.409,1.153,1.414,1.749,2.121,1.936c0.166-0.09,0.371-0.444,0.371-0.443c-0.745-1.23-0.842-2.663-0.642-4.306l0.03-0.017
		c0.16,0.008,0.431,0.565,0.622,0.975c0.41,0.882,0.4,2.152,1.219,3.2c0.453,0.577,0.733,1.153,1.14,1.434
		c0.175-0.409,0.045-1.112,0.019-1.3c-0.092-0.667-0.511-1.835,0.63-2.866c0.533,1.539,1.258,1.093,1.357,1.83
		c0.136,1.035,0.09,0.87-0.015,1.664c0.054,1.095,1.048,1.402,1.931,2.102c1.991,1.083,3.312,1.669,4.178,3.056
		c0.423-2.34-5.894-2.808-5.08-7.324c-0.084-1.804,0.225-1.955-1.054-3.056c2.535,0.074,3.916,4.235,4.054,4.994
		c0.254,1.396,1.101,1.468,2.264,3.287c0.168,0.062-2.08-4.848,0.6-9.051c0,0,0.903,2.184,0.477,3.615
		c-0.257,0.862-0.019,1.816,0.029,2.357c0.049,0.551-0.11-1.992,1.804-3.308c0.119,0.962,1.042,2.452,0.167,4.05
		c-1.063,1.943-1.141,1.245-1.157,3.635c0.096-0.041,0.371-1.647,1.101-2.56c1.541-1.927,0.44-2.963,1.945-4.634
		c0.119,0.835,0.332,0.505,0.422,1.249c0.202,1.669-1.542,3.495-1.156,3.439c0.444-0.062,1.156-0.449,1.395-1.716
		c0,0,0.643,1.157,0.055,1.543c-1.063,0.697-1.285,1.448-1.12,2.293c0.854-1.02,2.019-2.147,1.817-3.598
		c0.096-0.875,1.045-1.23,1.234-3.264c0.032-0.337,0.369-0.746,0.705-0.926c-0.147,1.143,0.74,2.323-0.269,3.722
		c0.23,0.123,1.084-1.09,2.332-0.647c-2.504,0.45-1.773,3.163-3.692,4.419c-0.578,0.379-0.479,0.804-0.652,0.852
		c1.713-0.097,3.033-2.137,3.262-2.292c1.722-1.164,2.099-1.343,2.787-3.23c0.27-0.718,0.074-1.035,1.028-2.003
		c0.418,0.955-0.189,2.933-0.334,3.359c-0.309,0.911-1.391,1.7-1.162,1.7c4.615-2.037,4.557-3.404,5.661-4.863
		c0.332-0.558,1.974-1.524,2.587-1.615c-0.15,0.305-0.788,0.816-0.817,1.368c-0.056,1.021-0.386,1.643-0.901,2.462
		c0.287,0.355,0.838-0.673,1.401-0.156C43.712,44.933,43.38,45.763,42.801,46.25z M43.572,45.98
		c-0.274,1.345-0.738,2.591-1.547,3.75c-0.567,0.82-0.797-0.776-0.309-2.321C42.409,47.132,43.102,46.595,43.572,45.98z
		 M40.057,11.864c-0.107-0.04-0.332-0.082-0.474-0.082c-0.142,0-0.218,0.202-0.041,0.249c0.112,0.031,0.322,0.068,0.522,0.077
		C40.202,12.122,40.158,11.907,40.057,11.864z M39.533,12.51c0.11,0.033,0.312,0.063,0.52,0.078c0.13,0.016,0.087-0.202-0.012-0.243
		c-0.102-0.036-0.326-0.08-0.464-0.082C39.426,12.263,39.356,12.457,39.533,12.51z M39.533,15.45
		c-0.102-0.12-0.377-0.348-0.624-0.522c-0.141,0.117-0.433,0.328-0.618,0.425c-0.138-0.156-0.321-0.372-0.602-0.589
		c-0.168,0.115-0.654,0.559-0.859,0.676c0.296,0.008,0.737,0.105,0.753,0.38c0.01,0.223-0.016,1.614,0,1.869
		c0.181,0.039,0.395,0.02,0.658,0.005c0.013-0.197,0.008-1.801,0.013-1.995c0.088-0.049,0.192-0.099,0.244-0.144
		c0.102,0.076,0.411,0.432,0.591,0.527c0.122-0.094,0.444-0.375,0.585-0.508C39.823,15.425,39.662,15.331,39.533,15.45z
		 M38.721,13.113c0.169-0.305,0.417-0.799,0.401-1.174c-0.022-0.462-0.306-1.148-0.983-1.374c-0.859,0.306-1.391,0.984-1.415,1.786
		c-0.016,0.469,0.384,1.436,1.208,1.441C38.186,13.548,38.454,13.29,38.721,13.113z M38.199,13.295
		c-0.159-0.077-0.74-0.525-0.872-0.868c-0.174-0.462-0.174-0.973,0.317-1.272c0.384,0.141,0.832,0.519,0.872,0.866
		C38.571,12.471,38.441,13.004,38.199,13.295z M38.178,9.721l0.618-0.675c0,0-0.274-0.216-0.438-0.416c0-0.141,0-1.494,0.06-1.566
		c-0.465-0.415-0.804-0.467-1.004-0.44c-0.376,0.057-0.761,0.539-0.883,0.701c-0.089,0.128-0.066,0.288,0,0.348
		c0.075,0.061,0.172,0.123,0.274,0.185c-0.017-0.011-0.034-0.021-0.051-0.028c-0.176,0.166-0.433,0.643-0.424,0.966
		c0.003,0.325,0.296,0.797,0.493,0.974c0.218-0.168,0.54-0.45,1.014-0.542C37.888,9.454,37.997,9.592,38.178,9.721z M37.806,8.163
		c-0.304-0.109-0.904-0.391-1.122-0.57c-0.058-0.046-0.063-0.072,0.007-0.185c0.139-0.206,0.296-0.386,0.406-0.377
		c0.095,0,0.705,0.326,0.685,0.498C37.804,7.65,37.808,7.906,37.806,8.163z M37.811,9.079c-0.158,0.008-0.297,0.05-0.5,0.147
		c-0.166-0.135-0.598-0.657-0.28-1.24c-0.044-0.026-0.089-0.05-0.132-0.076c0.293,0.164,0.635,0.308,0.905,0.395
		c-0.002,0.232-0.009,0.441-0.009,0.517C37.794,8.921,37.802,9.001,37.811,9.079z M36.035,6.301c-0.146,0-1.123,0.021-1.147-0.035
		c-0.072-0.209-0.09-0.463,0.078-0.817c0.083-0.176-0.078-0.25-0.141-0.073c-0.062,0.173-0.551,0.849-1.059,1.067
		c-0.261,0.103,0.318,0.343,0.278,0.332c-0.003,0.65,0.091,1.626,0.229,2.017c0.086,0.233,0.351,0.611,0.533,0.496
		c0.117-0.074,0.373-0.58,0.453-0.645c0.141-0.115,0.003-0.31-0.114-0.192c-0.131,0.114-0.242-0.064-0.278-0.183
		c-0.043-0.116-0.163-1.547-0.103-1.575c0,0,1.155-0.14,1.27-0.14C36.113,6.553,36.117,6.301,36.035,6.301z M32.863,8.939
		l0.477-0.62c-0.347-0.06-0.489-0.124-0.73-0.399l0.009-1.538l-0.487-0.487l-0.167,0.018L31.2,6.584
		c-0.079,0.117,0.126,0.117,0.229-0.022l0.554,0.318l0.025,1.489c0.042,0.178,0.189,0.35,0.41,0.57H32.863z M32.45,5.523
		l0.268-0.232V4.917l-0.362-0.351l-0.359,0.306l0.008,0.431l0.223,0.221H32.45z M31.226,5.049c-0.205-0.024-0.883,0.032-1.128,0.071
		c-0.245,0.037-0.245,0.156-0.041,0.181c0.203,0.021,0.242,0.063,0.349,0.337c0.098,0.275-0.391,1.522-0.513,1.815
		c-0.143-0.214-0.662-1.354-0.662-1.509c0-0.111,0.229-0.222,0.327-0.249c0.192-0.059,0.188-0.191,0.043-0.219
		c-0.406-0.057-1.834-0.183-2.087-0.214c-0.182-0.016-0.266,0.195-0.044,0.195c0.229,0.007,0.467-0.062,0.717,0.304
		c0.288,0.415,1.194,2.361,1.41,3.18c0.106-0.172,1.01-2.792,1.062-3.069c0.064-0.271,0.255-0.536,0.521-0.615
		C31.454,5.184,31.429,5.067,31.226,5.049z M26.939,11.381c0.012,1.09,0.445,1.182,0.94,1.467c0.469,0.265,1.257,0.212,1.849,0.056
		c0.224-0.065,0.345-0.079,0.338,0.115c0,0.121,0.169,0.095,0.169,0.005c0-0.089,0.008-1.003,0.008-1.104
		c0-0.114-0.166-0.097-0.166,0c0,0.152,0,0.198-0.149,0.415c-0.407,0.602-1.425,0.578-1.969-0.158
		c-0.187-0.25-0.356-0.585-0.14-0.649c0.214-0.065,0.869,0.07,1.301,0.106c0.26,0.017,0.859,0.078,0.934,0.121
		c0.067,0.05,0.167,0.113,0.167-0.018c0.006-0.128,0.006-0.548,0.006-0.678c0-0.125-0.097-0.065-0.17-0.021
		c-0.074,0.052-0.712,0.158-0.968,0.203c-0.257,0.048-1.049,0.111-1.257,0.041c-0.213-0.071-0.142-0.498,0.047-0.743
		c0.552-0.73,1.666-0.679,2.068-0.072c0.139,0.211,0.139,0.261,0.139,0.42c0,0.095,0.16,0.107,0.16,0
		c0.009-0.103,0.013-1.206,0.013-1.294c0-0.086-0.162-0.117-0.162,0c0,0.081-0.177,0.127-0.352,0.081
		c-0.346-0.109-1.354,0.047-1.804,0.293C27.544,10.195,26.931,10.721,26.939,11.381z M27.131,13.314
		c0.012,0.31,0.126,2.975,0.092,3.344c-0.021,0.212,0.262,0.436,0.521,0.612c0.126-0.152,0.4-0.551,0.626-0.718
		c0.133-0.109,0.042-0.181-0.062-0.141c-0.204,0.095-0.41,0.021-0.43-0.215c-0.019-0.236-0.019-2.529,0-2.86
		C27.722,13.337,27.279,13.329,27.131,13.314z M29.33,15.493c-0.177,0.167-0.493,0.6-0.486,0.919
		c0.005,0.327,0.162,0.641,0.352,0.818c0.323-0.226,0.525-0.537,1.063-0.744c0.066,0.251,0.243,0.29,0.453,0.447
		c0.126-0.137,0.583-0.698,0.684-0.796c0.102-0.096,0.043-0.195-0.101-0.096c-0.144,0.096-0.243,0.037-0.483-0.222
		c0.008-0.14-0.016-1.286,0.039-1.35c-0.219-0.236-0.421-0.558-0.68-0.534c-0.376,0.031-0.855,0.688-0.974,0.859
		c-0.095,0.123,0.004,0.593,0.075,0.652C29.295,15.47,29.308,15.473,29.33,15.493z M29.593,15.684
		c0.21,0.117,0.316,0.045,0.643,0.009c-0.001,0.206-0.007,0.391-0.008,0.489c-0.143,0.103-0.32,0.193-0.524,0.293
		C29.542,16.343,29.306,16.23,29.593,15.684z M29.421,14.739c0.137-0.209,0.224-0.25,0.333-0.25
		c0.099,0.006,0.482,0.269,0.462,0.446c0.019,0.115,0.022,0.354,0.021,0.599c-0.286,0.035-0.488,0.067-0.809-0.203
		C29.369,15.283,29.354,14.848,29.421,14.739z M31.729,14.316c-0.244,0.122,0.326,0.347,0.288,0.337
		c-0.008,0.645-0.138,1.7,0.084,2.035c0.136,0.205,0.448,0.339,0.657,0.259c0.201-0.08,0.456-0.48,0.532-0.546
		c0.149-0.111,0.022-0.23-0.102-0.115c-0.123,0.115-0.457,0.033-0.501-0.083c-0.035-0.121-0.077-1.529-0.02-1.557
		c0,0,0.402-0.009,0.509-0.005c0.084,0,0.09-0.255,0.008-0.255c-0.146-0.003-0.471-0.031-0.489-0.089
		c-0.048-0.133,0.011-0.562,0.094-0.736c0.086-0.176-0.078-0.253-0.143-0.081C32.58,13.661,32.158,14.105,31.729,14.316z
		 M31.845,11.386c0.025,0.61-0.292,1.25-0.638,1.54c0.597-0.155,0.675-0.511,1.002-0.93c0.181,0.267,0.516,0.589,0.761,0.729
		c0.172-0.114,0.66-0.663,0.768-0.776c-0.352-0.094-1.032-0.454-1.202-0.833c-0.134-0.282-0.102-0.415,0.031-0.637
		c0.119,0.156,0.946,0.536,1.318-0.098c-0.407-0.148-0.773-0.415-0.897-0.63c-0.109,0.091-0.473,0.487-0.677,0.612
		c-0.047-0.218-0.381-0.453-0.652-0.501c-0.088,0.095-0.726,0.581-1.017,0.723c-0.09,0.043-0.056,0.238,0.07,0.189
		c0.119-0.052,0.316-0.202,0.543-0.31C31.519,10.565,31.818,10.834,31.845,11.386z M34.704,11.485
		c0.074-0.37,0.333-0.521,0.453-0.632c0.168,0.187,0.337,0.398,0.591,0.398c0.248,0.002,0.505-0.112,0.585-0.215
		c-0.204-0.165-0.67-0.655-0.763-0.747c-0.236,0.131-1.26,0.663-1.347,1.277c-0.125,0.905,0.162,1.086,0.56,1.583
		c0.224,0.283,0.598,0.296,0.768,0.252c0.184-0.127,0.854-0.764,0.929-0.843c0.067-0.079-0.03-0.15-0.114-0.07
		c-0.083,0.076-0.051,0.109-0.161,0.125c-0.114,0.018-0.57,0.095-0.835-0.043C35.037,12.395,34.604,11.985,34.704,11.485z
		 M34.203,14.375c-0.151,0.154-0.415,0.331-0.662,0.605c0.205,0.015,0.375,0.059,0.473,0.255c0.101,0.195,0.016,1.017,0.03,1.333
		c0.017,0.307,0.203,0.372,0.446,0.627c0.243-0.062,0.922-0.345,1.151-0.502c-0.021,0.252,0.298,0.536,0.487,0.591
		c0.126-0.137,0.264-0.213,0.449-0.385c-0.181-0.121-0.157-0.138-0.225-0.378c-0.053-0.232,0.013-1.11,0.019-1.487
		c-0.144-0.218-0.38-0.478-0.621-0.659c-0.17,0.156-0.4,0.363-0.669,0.647c0.201-0.027,0.596,0.053,0.615,0.222
		c0.012,0.218,0.045,0.693,0,1.063c-0.045,0.373-1.047,0.201-1.061-0.049c-0.022-0.258,0.051-1,0.057-1.351
		C34.549,14.69,34.465,14.571,34.203,14.375z M27.55,23.391v-0.036c-0.579-0.083-1.034-0.489-1.564-0.689
		c-0.733-0.277-1.51,0.289-1.51,0.378c0,0.198,0.208,0.299,0.801-0.074c-0.464,0.538,0.063,0.975,0.063,0.975
		c-0.193-0.029-0.469-0.094-0.646-0.194c-0.035,0.194,0.232,0.265,0.359,0.35C26.038,24.504,26.685,23.558,27.55,23.391z
		 M25.893,23.891c0,0,0.261-0.283,0.26-0.486c-0.001-0.274-0.26-0.474-0.26-0.474c0.223,0.064,0.75,0.361,0.939,0.485L25.893,23.891
		z M20.5,16.43l0.282-0.312c-0.317-0.059-0.17-0.056-0.338-0.21l-0.01-1.293l-0.413-0.606l-0.156,0.022l-0.647,0.604
		c-0.171,0.15-0.021,0.222,0.179,0.056l0.428,0.222l0.01,1.369c0.036,0.169,0.186,0.208,0.395,0.423L20.5,16.43z M20.641,11.931
		c0.218,0.62,0.733,0.816,1.116,0.846c0.114-0.212,0.326-0.535,0.442-0.685c0.172-0.229-0.003-0.367-0.124-0.103
		c-0.093,0.203-0.591-0.019-0.771-0.192c-0.242-0.226-0.394-0.817-0.2-1.026c0.195-0.21,0.475-0.114,0.836-0.124
		c0.237-0.012,0.288-0.231,0.329-0.343c-0.115-0.054-0.286-0.152-0.512-0.288c-0.232,0.148-0.591,0.453-0.746,0.581
		C20.818,10.761,20.422,11.326,20.641,11.931z M21.575,15.348c-0.235,0.241-0.409,0.508-0.406,0.843
		c0.012,0.319,0.118,0.637,0.443,0.781c0.288-0.212,0.658-0.469,1.015-0.537c0.175,0.21,0.443,0.351,0.604,0.477
		c0.112-0.135,0.468-0.424,0.566-0.514c0.093-0.096,0-0.229-0.098-0.104c-0.076,0.115-0.327,0.032-0.399-0.086
		c0-0.136-0.13-1.572-0.072-1.639c-0.208-0.231-0.565-0.752-0.805-0.726c-0.35,0.036-0.873,0.536-0.985,0.699
		c-0.085,0.123,0.026,0.714,0.093,0.771C21.549,15.327,21.558,15.332,21.575,15.348z M22.495,15.472
		c-0.264,0.005-0.491-0.076-0.779-0.33c-0.055-0.046-0.106-0.374-0.044-0.48c0.126-0.202,0.126-0.264,0.237-0.262
		c0.086,0,0.617,0.321,0.589,0.493C22.519,15.015,22.509,15.246,22.495,15.472z M21.796,15.52c0.242,0.163,0.381,0.142,0.686,0.112
		c-0.013,0.165-0.024,0.317-0.024,0.385c0,0.074,0.03,0.131,0.051,0.193c-0.158,0.056-0.358,0.09-0.514,0.167
		C21.854,16.253,21.337,15.9,21.796,15.52z M23.787,12.856l0.289-0.311c-0.324-0.062-0.324-0.04-0.497-0.195l0.013-1.497
		l-0.283-0.417l-0.151,0.02l-0.651,0.601c-0.175,0.157-0.019,0.232,0.177,0.058l0.335,0.206l0.012,1.41
		c0.035,0.168,0.183,0.227,0.39,0.44L23.787,12.856z M23.279,7.618c-0.134-0.008-0.337,0.237,0.446,0.317
		C23.846,7.949,24.009,7.662,23.279,7.618z M23.288,7.15c-0.129-0.007-0.332,0.349,0.449,0.32
		C23.859,7.465,23.949,7.188,23.288,7.15z M23.438,9.502l-0.335-0.348l-0.337,0.303l0.007,0.417l0.206,0.211h0.208l0.251-0.226
		V9.502z M22.756,6.298c-0.227-0.156-0.475-0.535-1.024-0.559c-0.552-0.022-1.174,0.477-1.377,0.79
		c-0.269,0.415,0.061,0.779,0.412,1.048c-0.225,0.192-0.537,0.489-0.825,0.759c0.116,0.126,0.748,0.424,1.102,0.416
		c0.536-0.012,1.032-0.288,1.337-0.534c0.558-0.441,0.364-0.91-0.204-1.241c-0.054-0.032-0.106-0.042-0.16-0.052
		C22.37,6.646,22.677,6.396,22.756,6.298z M21.347,7.453c0.187,0.084,0.376,0.168,0.583,0.29c0.299,0.169,0.146,0.492-0.177,0.64
		c-0.328,0.151-0.914-0.273-1.005-0.447C20.868,7.833,21.094,7.654,21.347,7.453z M21.938,6.666c-0.049,0.04-0.19,0.154-0.342,0.275
		c-0.089,0.016-0.18,0.026-0.273,0.014c-0.281-0.04-0.416-0.252-0.546-0.421c-0.133-0.178,0.212-0.325,0.381-0.308
		C21.331,6.25,21.712,6.454,21.938,6.666z M19.63,7.881c-0.821,0.207-1.205-0.451-1.287-0.627c0.332-0.339,0.896-0.894,1.239-1.176
		c-0.227-0.209-0.321-0.556-0.724-0.586c-0.352,0.01-1.172,0.408-1.316,1.45c-0.138,1,0.801,1.541,1.545,1.571
		c0.249,0,0.558-0.321,0.711-0.396C20.128,7.955,20.005,7.795,19.63,7.881z M18.284,7.057c-0.208-0.667-0.129-0.896,0.285-1.225
		c0.093,0.229,0.331,0.395,0.463,0.474C18.798,6.534,18.435,6.945,18.284,7.057z M17.334,6.463c0.141-0.138-0.009-0.237-0.133-0.118
		c-0.093-0.111-0.331-0.355-0.457-0.505c-0.135,0.112-0.444,0.297-0.616,0.394c-0.135-0.154-0.301-0.154-0.571-0.366
		c-0.149,0.115-0.48,0.357-0.659,0.573c0.315,0.092,0.551,0.11,0.571,0.379c0.011,0.219-0.023,1.57-0.004,1.818
		c0.168,0.037,0.374,0.02,0.612,0.008c0.019-0.193,0.01-1.888,0.01-2.076c0.09-0.05,0.183-0.1,0.228-0.142
		c0.099,0.076,0.295,0.362,0.453,0.456C16.889,6.795,17.201,6.598,17.334,6.463z M14.743,9.963
		c-0.356,0.032-0.871,0.449-1.024,0.808c-0.062,0.144,0.026,0.661,0.091,0.718c0.046,0.041,0.083,0.069,0.124,0.101
		c-0.234,0.217-0.454,0.403-0.447,0.726c0.01,0.312,0.258,0.588,0.578,0.734c0.171-0.261,0.438-0.42,0.725-0.488
		c0.023,0.249,0.081,0.431,0.245,0.556c0.117-0.13,0.586-0.535,0.677-0.627c0.099-0.093,0.025-0.206-0.091-0.093
		c-0.069,0.063-0.236-0.031-0.286-0.112c0-0.136,0-1.569,0.06-1.634C15.182,10.422,14.981,9.937,14.743,9.963z M14.771,11.418
		c-0.398,0.257-0.524,0.249-0.798-0.06c-0.136-0.158-0.124-0.455-0.061-0.567c0.123-0.194,0.339-0.389,0.442-0.387
		c0.09,0.006,0.41,0.396,0.388,0.565C14.76,11.063,14.767,11.236,14.771,11.418z M14.775,12.134c-0.002,0.078,0,0.144,0.002,0.213
		c-0.077,0.02-0.164,0.038-0.271,0.092c-0.146-0.124-0.836-0.35-0.383-0.715c0.277,0.164,0.384,0.036,0.652-0.13
		C14.778,11.829,14.775,12.05,14.775,12.134z M14.465,9.1c-0.048-0.062-0.141-0.161-0.145-0.287c0-0.083,0.01-0.947,0.01-1.054
		c0-0.103-0.204-0.091-0.204,0c-0.009,0.153,0.014,0.415-0.124,0.627c-0.379,0.586-1.101,0.828-1.608,0.109
		c-0.173-0.239-0.213-0.6-0.235-0.858c-0.034-0.345,0.228-0.79,0.242-0.831c0.646-0.846,1.542-0.218,1.614,0.126
		c0.048,0.229,0.1,0.511,0.1,0.658c-0.006,0.098,0.206,0.088,0.209-0.014c0-0.105,0.006-1.405,0.006-1.497
		c0.004-0.084-0.17-0.112-0.174,0c-0.01,0.206-0.131,0.224-0.289,0.173c-0.327-0.097-1.051-0.252-1.472-0.011
		c-0.37,0.218-0.938,0.729-0.928,1.371c0.011,1.057,0.41,1.146,0.874,1.43c0.434,0.255,1.033,0.09,1.581-0.068
		c0.217-0.059,0.245,0.078,0.349,0.232C14.449,9.444,14.592,9.292,14.465,9.1z M11.537,10.593c-0.366,0.56-0.566,1.442,0.067,1.958
		c0.298,0.25,0.545,0.444,1.154,0.335c0.12-0.241,0.174-0.321,0.388-0.6c-0.419,0.067-0.743-0.008-1.049-0.24
		c-0.631-0.489-0.436-1.277-0.249-1.546c0.34-0.505,0.823,0.217,0.91,0.315c0.112-0.135,0.306-0.326,0.496-0.475
		c-0.188-0.249-0.341-0.479-0.469-0.629C12.382,9.857,11.79,10.218,11.537,10.593z M11.798,15.428
		c-0.136,1.006,0.813,1.604,1.269,1.797c0.115-0.231,0.348-0.606,0.576-0.869c0.174-0.203-0.017-0.256-0.173-0.101
		c-0.21,0.229-0.837,0.012-1.003-0.291c0.303-0.228,1.092-0.888,1.436-1.169c-0.227-0.213-0.578-0.741-0.631-1.045
		C12.964,13.957,11.951,14.382,11.798,15.428z M12.777,14.338c0.091,0.233,0.383,0.677,0.515,0.754
		c-0.227,0.227-0.783,0.604-0.939,0.715C12.067,15.45,11.914,14.866,12.777,14.338z M14.851,13.973
		c-0.197,0.186-0.352,0.355-0.639,0.583c0.133,0.154,0.36,0.347,0.38,0.611c0.018,0.267,0.007,1.504,0.023,1.814
		c0.211,0,0.173,0.022,0.535,0.008c-0.036-0.21-0.005-1.816-0.005-2.047c0.136-0.129,0.155-0.149,0.31-0.265
		c0.112,0.098,0.374,0.156,0.374,0.328c0,0.173,0.052,0.936-0.009,1.217c-0.076,0.344-0.042,0.591,0.143,0.938
		c0.141-0.158,0.667-0.525,0.781-0.617c0.112-0.097,0.054-0.17-0.092-0.131c-0.156,0.034-0.183,0.064-0.183-0.035
		c0-0.185-0.074-1.022-0.085-1.556c-0.019-0.536-0.281-0.694-0.431-0.767c-0.153,0.17-0.496,0.386-0.701,0.56
		C15.098,14.5,15.021,14.244,14.851,13.973z M17.006,12.677c0.181-0.145,0.313-0.387,0.387-0.445
		C17.532,12.118,17.417,12,17.3,12.11c-0.094,0.092-0.339-0.122-0.35-0.136c-0.08-0.094-0.197-1.32-0.142-1.347
		c0,0,0.78-0.096,0.882-0.094c0.077,0.005,0.087-0.243,0.004-0.248c-0.127,0-0.722,0.083-0.743,0.024
		c-0.033-0.129-0.113-0.566,0.083-0.942c0.092-0.163-0.003-0.321-0.063-0.154c-0.069,0.17-0.558,0.929-0.874,1.053
		c-0.258,0.105-0.229,0.166-0.062,0.208c0.131,0.026,0.269,0.183,0.243,0.181c-0.026,0.629-0.088,1.406,0.108,1.735
		C16.51,12.598,16.851,12.813,17.006,12.677z M19.684,12.956c-0.096,0.19-0.251,0.364-0.536,0.493
		c0.173,0.15,0.398,0.344,0.546,0.441c0.17-0.189,0.327-0.365,0.523-0.551C20.024,13.301,19.798,13.204,19.684,12.956z
		 M18.457,12.262c0.248-0.02,0.647,0.128,1.09,0.092c0.526-0.038,0.939-0.854,0.712-1.488c-0.212-0.603-0.884-0.497-1.336-0.641
		c-0.416-0.113-0.588-0.375-0.134-0.673c0.533-0.345,1.195,0.208,1.259,0.324c0.098,0.176,0.18,0.173,0.18-0.056
		c0.013-0.5-0.032-0.217-0.082-0.687c-0.016-0.168-0.139-0.182-0.15-0.021c-0.011,0.164-0.211,0.114-0.361,0.114
		c-0.153-0.003-0.598-0.071-0.982,0.142c-0.245,0.143-0.804,0.581-0.491,1.106c0.183,0.307,1.257,0.556,1.524,0.732
		c0.27,0.175,0.33,0.626,0.072,0.833c-0.319,0.253-1.188,0.04-1.322-0.114c-0.176-0.195-0.243-0.355-0.28-0.581
		c-0.037-0.231-0.231-0.211-0.231,0c0,0.21,0.049,0.932,0.087,1.102c0.035,0.177,0.211,0.118,0.228-0.016
		C18.259,12.308,18.341,12.271,18.457,12.262z M17.331,14.513c-0.204,0.153,0.242,0.368,0.201,0.355
		c0.016,0.631-0.075,1.279,0.139,1.6c0.136,0.199,0.559,0.345,0.633,0.154c0.071-0.192,0.392-0.584,0.464-0.65
		c0.133-0.118,0.016-0.226-0.097-0.109c-0.232,0.246-0.361,0.132-0.532-0.031c-0.083-0.093-0.114-0.976-0.054-1.001
		c0,0,0.426-0.062,0.528-0.062c0.079,0,0.072-0.245-0.011-0.245c-0.127,0-0.508,0.003-0.53-0.056
		c-0.047-0.122,0.076-0.717,0.098-0.983c0.018-0.188-0.083-0.248-0.134-0.072C17.98,13.583,17.572,14.338,17.331,14.513z"/>
</g>
</svg>
