<?xml version="1.0" encoding="utf-8"?>
<!-- Generator: Adobe Illustrator 21.1.0, SVG Export Plug-In . SVG Version: 6.00 Build 0)  -->
<svg version="1.1" id="Layer_1" xmlns="http://www.w3.org/2000/svg" xmlns:xlink="http://www.w3.org/1999/xlink" x="0px" y="0px"
	 viewBox="0 0 1876 375" style="enable-background:new 0 0 1876 375;" xml:space="preserve">
<style type="text/css">
	.st0{fill:none;enable-background:new    ;}
	.st1{enable-background:new    ;}
	.st2{fill:#8B0021;}
</style>
<image style="overflow:visible;" width="1222" height="243" xlink:href="6CBE56DE82C9C063.png"  transform="matrix(1 0 0 1 75 48)">
</image>
<path class="st0" d="z"/>
<g class="st1">
	<path class="st2" d="M1345.2,88V58.5h11.4v29.2c0,8.4,4.2,12.8,11.1,12.8s11.1-4.2,11.1-12.4V58.5h11.4v29.1
		c0,15.6-8.8,23.3-22.6,23.3S1345.2,103.2,1345.2,88z"/>
	<path class="st2" d="M1398.2,102.6l6.7-8c4.6,3.8,9.5,6.3,15.4,6.3c4.6,0,7.4-1.8,7.4-4.9v-0.1c0-2.9-1.8-4.4-10.4-6.6
		c-10.4-2.7-17.1-5.5-17.1-15.8v-0.1c0-9.4,7.5-15.6,18.1-15.6c7.5,0,13.9,2.4,19.2,6.6l-5.9,8.6c-4.6-3.2-9.1-5.1-13.4-5.1
		c-4.4,0-6.6,2-6.6,4.5v0.1c0,3.4,2.2,4.5,11.1,6.8c10.5,2.7,16.4,6.5,16.4,15.5v0.1c0,10.2-7.8,16-18.9,16
		C1412.3,110.8,1404.4,108.1,1398.2,102.6z"/>
	<path class="st2" d="M1471.1,58.5h38.9v10.1h-27.6V79h24.3v10.1h-24.3V100h28v10.1h-39.3V58.5z"/>
	<path class="st2" d="M1519.3,70.6h11.2v5.6c2.6-3.3,5.9-6.3,11.6-6.3c8.5,0,13.4,5.6,13.4,14.7v25.6h-11.2V88c0-5.3-2.5-8-6.8-8
		c-4.3,0-7,2.7-7,8v22h-11.2V70.6z"/>
	<path class="st2" d="M1563.3,90.6v-0.1c0-11.3,8-20.6,19.5-20.6c13.2,0,19.2,10.2,19.2,21.5c0,0.9-0.1,1.9-0.1,2.9h-27.5
		c1.1,5.1,4.6,7.7,9.7,7.7c3.8,0,6.5-1.2,9.6-4.1l6.4,5.7c-3.7,4.6-9,7.4-16.1,7.4C1572.1,111,1563.3,102.6,1563.3,90.6z
		 M1591.2,87.2c-0.7-5-3.6-8.4-8.3-8.4c-4.6,0-7.7,3.3-8.6,8.4H1591.2z"/>
	<path class="st2" d="M1610.4,70.6h11.2v8c2.3-5.5,6-9,12.6-8.7v11.7h-0.6c-7.4,0-12,4.5-12,13.9v14.6h-11.2V70.6z"/>
	<path class="st2" d="M1640.7,117.9l3.8-8.4c4.1,2.3,8.1,3.6,13.3,3.6c7.7,0,11.3-3.7,11.3-10.8v-1.9c-3.3,4-6.9,6.4-12.9,6.4
		c-9.2,0-17.5-6.7-17.5-18.4v-0.1c0-11.8,8.5-18.4,17.5-18.4c6.1,0,9.7,2.6,12.8,5.9v-5.2h11.2v30.6c0,7.1-1.7,12.2-5,15.6
		c-3.7,3.7-9.4,5.3-17,5.3C1651.8,122,1645.7,120.6,1640.7,117.9z M1669.2,88.4v-0.1c0-5.4-4.2-9.1-9.7-9.1s-9.6,3.8-9.6,9.1v0.1
		c0,5.5,4.1,9.1,9.6,9.1S1669.2,93.8,1669.2,88.4z"/>
	<path class="st2" d="M1716.2,70.6h11.6l-15.2,40.5c-3,8-6.3,11.1-13,11.1c-4.1,0-7.1-1-10-2.7l3.8-8.1c1.5,0.9,3.3,1.5,4.8,1.5
		c1.9,0,2.9-0.6,3.9-2.6l-15.5-39.7h11.9l9,26.9L1716.2,70.6z"/>
</g>
<g class="st1">
	<path class="st2" d="M1346,147h38.9v10.1h-27.6v10.5h24.3v10.1h-24.3v10.8h28v10.1H1346V147z"/>
	<path class="st2" d="M1390,159h11.9l8.8,26.5l8.9-26.5h11.6l-15.6,39.8h-10.2L1390,159z"/>
	<path class="st2" d="M1433.6,179v-0.1c0-11.4,9.1-20.6,21.5-20.6c12.2,0,21.3,9.1,21.3,20.4v0.1c0,11.4-9.1,20.6-21.5,20.6
		C1442.7,199.4,1433.6,190.4,1433.6,179z M1465.3,179v-0.1c0-5.8-4.2-10.9-10.4-10.9c-6.4,0-10.2,4.9-10.2,10.8v0.1
		c0,5.8,4.2,10.9,10.4,10.9C1461.5,189.8,1465.3,184.8,1465.3,179z"/>
	<path class="st2" d="M1485,144.7h11.2v53.8H1485V144.7z"/>
	<path class="st2" d="M1506.5,184.6V159h11.2v22c0,5.3,2.5,8,6.8,8s7-2.7,7-8v-22h11.2v39.5h-11.2V193c-2.6,3.3-5.9,6.3-11.6,6.3
		C1511.4,199.3,1506.5,193.7,1506.5,184.6z"/>
	<path class="st2" d="M1554.5,187.4v-18.7h-4.7V159h4.7v-10.1h11.2V159h9.3v9.6h-9.3v16.9c0,2.6,1.1,3.8,3.6,3.8
		c2.1,0,3.9-0.5,5.5-1.4v9c-2.4,1.4-5.1,2.3-8.8,2.3C1559.2,199.2,1554.5,196.5,1554.5,187.4z"/>
	<path class="st2" d="M1583.5,144.7h11.8v10h-11.8V144.7z M1583.8,159h11.2v39.5h-11.2V159z"/>
	<path class="st2" d="M1603.6,179v-0.1c0-11.4,9.1-20.6,21.5-20.6c12.2,0,21.3,9.1,21.3,20.4v0.1c0,11.4-9.1,20.6-21.5,20.6
		C1612.7,199.4,1603.6,190.4,1603.6,179z M1635.4,179v-0.1c0-5.8-4.2-10.9-10.4-10.9c-6.4,0-10.2,4.9-10.2,10.8v0.1
		c0,5.8,4.2,10.9,10.4,10.9C1631.5,189.8,1635.4,184.8,1635.4,179z"/>
	<path class="st2" d="M1654.5,159h11.2v5.6c2.6-3.3,5.9-6.3,11.6-6.3c8.5,0,13.4,5.6,13.4,14.7v25.6h-11.2v-22c0-5.3-2.5-8-6.8-8
		c-4.3,0-7,2.7-7,8v22h-11.2V159z"/>
</g>
<g class="st1">
	<path class="st2" d="M1341.6,235.4h12.5l13.5,36.3l13.5-36.3h12.2l-20.9,52h-10L1341.6,235.4z"/>
	<path class="st2" d="M1398.9,233.2h11.8v10h-11.8V233.2z M1399.2,247.5h11.2V287h-11.2V247.5z"/>
	<path class="st2" d="M1417.9,281.8l4.8-7.4c4.3,3.1,8.8,4.7,12.5,4.7c3.2,0,4.7-1.2,4.7-2.9v-0.1c0-2.4-3.8-3.2-8.2-4.6
		c-5.5-1.6-11.8-4.2-11.8-11.9v-0.1c0-8,6.5-12.5,14.5-12.5c5,0,10.5,1.7,14.7,4.6l-4.3,7.7c-3.9-2.3-7.8-3.7-10.7-3.7
		c-2.7,0-4.1,1.2-4.1,2.7v0.1c0,2.2,3.8,3.2,8,4.7c5.5,1.8,11.9,4.5,11.9,11.7v0.1c0,8.8-6.6,12.8-15.1,12.8
		C1429.3,287.8,1423.1,285.9,1417.9,281.8z"/>
	<path class="st2" d="M1457.7,273.1v-25.6h11.2v22c0,5.3,2.5,8,6.8,8s7-2.7,7-8v-22h11.2V287h-11.2v-5.6c-2.6,3.3-5.9,6.3-11.6,6.3
		C1462.6,287.8,1457.7,282.2,1457.7,273.1z"/>
	<path class="st2" d="M1501.5,275.7v-0.1c0-8.6,6.6-12.6,15.9-12.6c4,0,6.9,0.7,9.7,1.6v-0.7c0-4.6-2.9-7.2-8.5-7.2
		c-4.3,0-7.3,0.8-10.9,2.1l-2.8-8.6c4.4-1.9,8.6-3.2,15.3-3.2c6.1,0,10.5,1.6,13.3,4.4c2.9,2.9,4.3,7.3,4.3,12.6V287H1527v-4.3
		c-2.7,3-6.5,5-11.9,5C1507.7,287.8,1501.5,283.5,1501.5,275.7z M1527.3,273.1v-2c-1.9-0.9-4.4-1.5-7.2-1.5c-4.8,0-7.7,1.9-7.7,5.5
		v0.1c0,3,2.5,4.8,6.1,4.8C1523.7,280,1527.3,277.2,1527.3,273.1z"/>
	<path class="st2" d="M1548.1,233.2h11.2V287h-11.2V233.2z"/>
	<path class="st2" d="M1570,233.2h11.8v10H1570V233.2z M1570.3,247.5h11.2V287h-11.2V247.5z"/>
	<path class="st2" d="M1590.7,279.1l20.4-22.6h-19.8v-9.1h33.7v7.9l-20.5,22.6h20.5v9.1h-34.4V279.1z"/>
	<path class="st2" d="M1631.2,275.7v-0.1c0-8.6,6.6-12.6,15.9-12.6c4,0,6.9,0.7,9.7,1.6v-0.7c0-4.6-2.9-7.2-8.5-7.2
		c-4.3,0-7.3,0.8-10.9,2.1l-2.8-8.6c4.4-1.9,8.6-3.2,15.3-3.2c6.1,0,10.5,1.6,13.3,4.4c2.9,2.9,4.3,7.3,4.3,12.6V287h-10.8v-4.3
		c-2.7,3-6.5,5-11.9,5C1637.3,287.8,1631.2,283.5,1631.2,275.7z M1657,273.1v-2c-1.9-0.9-4.4-1.5-7.2-1.5c-4.8,0-7.7,1.9-7.7,5.5
		v0.1c0,3,2.5,4.8,6.1,4.8C1653.4,280,1657,277.2,1657,273.1z"/>
	<path class="st2" d="M1678.7,275.8v-18.7h-4.7v-9.6h4.7v-10.1h11.2v10.1h9.3v9.6h-9.3V274c0,2.6,1.1,3.8,3.6,3.8
		c2.1,0,3.9-0.5,5.5-1.4v9c-2.4,1.4-5.1,2.3-8.8,2.3C1683.3,287.7,1678.7,285,1678.7,275.8z"/>
	<path class="st2" d="M1707.7,233.2h11.8v10h-11.8V233.2z M1708,247.5h11.2V287H1708V247.5z"/>
	<path class="st2" d="M1727.8,267.5v-0.1c0-11.4,9.1-20.6,21.5-20.6c12.2,0,21.3,9.1,21.3,20.4v0.1c0,11.4-9.1,20.6-21.5,20.6
		C1736.9,287.9,1727.8,278.9,1727.8,267.5z M1759.5,267.5v-0.1c0-5.8-4.2-10.9-10.4-10.9c-6.4,0-10.2,4.9-10.2,10.8v0.1
		c0,5.8,4.2,10.9,10.4,10.9C1755.7,278.3,1759.5,273.3,1759.5,267.5z"/>
	<path class="st2" d="M1778.7,247.5h11.2v5.6c2.6-3.3,5.9-6.3,11.6-6.3c8.5,0,13.4,5.6,13.4,14.7V287h-11.2v-22c0-5.3-2.5-8-6.8-8
		c-4.3,0-7,2.7-7,8v22h-11.2V247.5z"/>
</g>
</svg>
